<svg xmlns="http://www.w3.org/2000/svg" viewBox="0 0 120 120"><title>exisim-logo</title><path d="M116.1882,74.0056c-1.6654-2.4993-8.3649-11.9482-8.8907-12.8056s-1.1729-2-2.6489-2-9.4761-.3033-14.586-.4227c-.4047-.0094-.4782-.8024-.3276-1.2023,1.5022-3.9886,4.3461-9.7056,5.25-11.875a3.7934,3.7934,0,0,0-.125-3.8125c-.75-1.625-3.8682-6.7647-6.1027-10.2312A4.1067,4.1067,0,0,0,86.36,29.7625a83.5872,83.5872,0,0,0-9.9167-.125c-.625,0-1.375-.375-.875-1.5.3251-.7315,1.2-3.83,2.5888-7.014,1.4112-3.236,1.8828-3.0065.2029-5.4444-1.5831-2.2973-4.1823-6.4026-5.5219-8.5283C71.7943,5.4942,70.75,4.5226,69.6928,4.295c-.4634-.1-6.2693-.9779-9.2562-1.0755a59.4167,59.4167,0,0,0-11.479.8344c-7.3527,1.2317-11.4617,3.9154-16.7609,8.6672-2.4418,2.1894-10.6979,7.4152-3.3836,23.5753C10.372,38.7,2.7715,48.0126,1.5472,55.777.8411,60.2547,1.3588,69.91,3.4965,73.758c2.1963,3.953,9.1869,21.7452,14.0846,28.7916s9.5289,14.2757,17.2537,14.2757c1.7764,0,2.8.1013,4.434,0,8.73-.541,6.4016-12.7006,9.16-20.0786s4.08-1.73,9.63,4.1645c3.0187,3.206,5.1359,4.0707,7.569-.8329,5.5049-11.0948,5.4687-8.2689,8.5945.1388.8394,2.258,2.8723,8.4017,4.6342,11.6146,1,1.8244,2.4515,4.9936,5.3265,4.9936h6.01c2.75,0,3.4665-1.189,5.4042-2.98,7.2877-6.7359,16.7626-26.5829,18.9959-29.44C117.91,80.1609,119.4869,78.9559,116.1882,74.0056ZM112.11,79.44c-8.1082.06-76.4416-.5127-81.4562-.3014-9.9579.4194-16.1794-1.0487-22.5845-8.638C2.5019,63.904,4.3078,50.23,12.4316,45.0326,17.3845,41.8637,28.69,38.2333,38.8,37.0478c1.1095-.13,1.2935-1.781-.2384-2.3811C30.365,31.456,26.619,24.6252,32.05,18.0973,37.34,11.739,43.7159,7.9637,52.3908,7.3536a59.2863,59.2863,0,0,1,15.8865.628,3.4009,3.4009,0,0,1,1.8343,1.1615,82.8449,82.8449,0,0,1,5.0789,8.5347c.2424.435.0939.7318-.3771.7083-4.9694-.2478-11.4486-.2742-17.7978-.54-14.0935-.59-17.1925,5.1692-6.0618,11.32,3.1667,1.75,5.5916,2.6478,12.4349,3.0427,2.1485.124,19.0521.5893,20.4192.5893A2.453,2.453,0,0,1,86.3591,34.25c2.0634,3.45,3.3285,6.0393,5.1274,9.1384.5765.9932-.1449,1.22-.8868,1.2783-2.11.1667-28.7035.3457-29.504.3825A106.1636,106.1636,0,0,0,33.863,50.3035c-9.3444,3.0114-10.843,10.88.8,11.8368,1.996.164,8.3116.1464,14.4188.0138,5.7542-.1249,46.4376-.1858,53.2262.1294a2.6338,2.6338,0,0,1,1.76,1.0918c2.8883,4.4869,7.6748,10.498,9.81,14.1195C114.5267,78.5958,113.61,79.4291,112.11,79.44Z"/></svg>