<svg xmlns="http://www.w3.org/2000/svg" viewBox="0 0 20 20"><title>exisim-icons</title><path d="M12.2416,17.1286a8.7425,8.7425,0,0,1-1.77-.3723c-.3447-.0909-.568-.1181-.7887.2508A6.0706,6.0706,0,0,1,7.854,18.7045a3.8422,3.8422,0,0,1-1.9864.7839,5.3917,5.3917,0,0,1-2.874-.7083A3.9462,3.9462,0,0,1,.7584,16.3093a3.2336,3.2336,0,0,1-.0409-1.5209A4.8259,4.8259,0,0,1,2.011,12.5207c.2489-.2528.2378-.83.2271-1.2569-.0324-1.2868-.1466-2.5715-.1826-3.8582-.0266-.9514.0871-1.91.0117-2.8556a5.3338,5.3338,0,0,1,.1755-2.2606A2.321,2.321,0,0,1,4.043.7608a2.6422,2.6422,0,0,0,.4126-.13,1.4259,1.4259,0,0,1,1.9373.8737c.11.2206.217.4427.33.6614.19.3654.2174,1.7514.44,1.8247.1952.0641.6679-1.0179.8155-1.1573.7037-.665.8249-1.0485,1.7083-1.4166a3.7162,3.7162,0,0,1,2.5641-.3459,24.6044,24.6044,0,0,1,2.757.77,4.8577,4.8577,0,0,1,2.4541,2.0513c.5087.8208.9567,1.6794,1.4243,2.5253a1.15,1.15,0,0,1,.1149.3694,17.4875,17.4875,0,0,1,.2868,1.958,5.9764,5.9764,0,0,1-.2083,2.8234c-.1021.229-.0414.527-.1277.7673a13.8088,13.8088,0,0,1-.6855,1.6622,5.6424,5.6424,0,0,1-2.0552,1.989,6.69,6.69,0,0,1-1.8474.8413A6.6537,6.6537,0,0,1,12.2416,17.1286ZM8.23,6.5934c-.9879-.0275-.9882-.01-.9159.9187.0011.0145.001.029.0017.0435.0573,1.3455.1072,2.6914.1839,4.0357a.5041.5041,0,0,0,.28.3655,4.1549,4.1549,0,0,1,2.0986,1.985c.0595.087.1085.2323.2149.236.1091.0038.1832-.136.2346-.2268a2.467,2.467,0,0,0-.2391-2.8072c-.1908-.2369-.4021-.4572-.5915-.6951a1.1,1.1,0,0,1,.72-1.9218,1.7266,1.7266,0,0,1,2.0522,1.4,4.6464,4.6464,0,0,0,.4418,1.1573,15.81,15.81,0,0,0,1.2728,1.6826.7915.7915,0,0,0,.5844.243c.13-.01.314-.2523.3471-.4163.1414-.6994.2519-1.4062.34-2.1145a.6952.6952,0,0,1,.5343-.684,22.067,22.067,0,0,0,2.1017-.7984c.1605-.0695.3736-.3369.3464-.4687a10.1888,10.1888,0,0,0-.6261-2.39A6.4258,6.4258,0,0,0,12.479,2.2448a1.2149,1.2149,0,0,0-1.5818,1.13,2.11,2.11,0,0,0-.08.4709A3.7847,3.7847,0,0,1,9.7683,6.1138,1.6342,1.6342,0,0,1,8.23,6.5934ZM5.73,18.4645a1.5743,1.5743,0,0,0,.6241-.0754,6.0215,6.0215,0,0,0,2.4959-1.96,1.6688,1.6688,0,0,0,.1979-1.7931,2.7774,2.7774,0,0,0-1.9293-1.73.59.59,0,0,1-.5014-.6426c-.0621-1.3281-.163-2.6544-.2415-3.9819-.0434-.734-.0435-1.4715-.1127-2.2028-.11-1.1657-.2661-2.327-.3941-3.4911-.0465-.4229-.6189-.9935-.9859-.96a1.9819,1.9819,0,0,0-1.99,2.27c.0459,1.4445.0623,2.89.0917,4.3348.0127.6211.0153,1.2427.0411,1.8633.0356.8585.1061,1.7159.1208,2.5745a1.1582,1.1582,0,0,1-.26.5656c-.4128.6223-.8517,1.2276-1.2548,1.8561a.608.608,0,0,0-.06.4894C2.3716,17.3952,3.5282,18.5085,5.73,18.4645ZM5.0911,4.4275c-.0181-.3579-.15-.6447-.5564-.6349-.425.01-.5128.328-.4908.6768.0661,1.052.1352,2.1041.2219,3.1546.0559.676.1865,1.3478.21,2.0241.0428,1.2285.0381,2.4591.0313,3.6886a.5223.5223,0,0,1-.227.3947,1.5792,1.5792,0,0,0-.82,2.48c.4938.7853,1.1613,1.3676,2.0584,1.1365a2.4529,2.4529,0,0,0,.9315-.6336,1.6071,1.6071,0,0,0,.1254-2.6126c-.3077-.33-.7472-.6374-.8567-1.03a11.3046,11.3046,0,0,1-.303-2.3164c-.0674-1.0748-.0685-2.1536-.1133-3.23-.0094-.2271-.1177-.4508-.1231-.6774C5.1622,6.1422,5.0962,4.5287,5.0911,4.4275Z"/></svg>