<svg viewBox="0 0 20 20" xmlns="http://www.w3.org/2000/svg"><path d="m12.24 17.1217c-.6469-.0231-1.3937-.4863-2.0116-.4243-.5035.0506-.612.4491-.9276.8092a6.2615 6.2615 0 0 1 -2.8383 1.877c-2.0044.5271-4.918-.7936-5.6425-2.7936a3.5386 3.5386 0 0 1 .2832-2.8979c.2372-.4459.6328-.7694.8829-1.1879a3.2382 3.2382 0 0 0 .2075-1.84c-.0536-1.3342-.1836-2.6673-.1613-4.0031a26.2562 26.2562 0 0 1 .0261-3.7736 2.4691 2.4691 0 0 1 1.594-2.0575c.98-.3769 1.8852-.6212 2.57.36a6.2574 6.2574 0 0 1 .7447 2.275c.2721 1.0071.5707-.0679.9-.5258a4.5232 4.5232 0 0 1 5.08-1.7418 8.5375 8.5375 0 0 1 3.3529 1.3272 9.0244 9.0244 0 0 1 2.0766 2.9062 9.1373 9.1373 0 0 1 .3385 7.5646 6.7955 6.7955 0 0 1 -6.4751 4.1263zm-4.0207-10.5584c-.4468-.0124-.778-.0908-.9423.3455a7.904 7.904 0 0 0 .103 2.4577c.03.7036-.18 2.0914.3883 2.572.2582.2184.6708.2934.95.5319a4.95 4.95 0 0 1 .7737.9028c.4253.5918.6668 1.1481 1.0165.1429a2.537 2.537 0 0 0 -.426-2.3924c-.3925-.5308-1.1134-1.0623-.9194-1.819.1823-.7113 1.1175-.936 1.7526-.8036a1.7776 1.7776 0 0 1 1.2632 1.148 9.4732 9.4732 0 0 0 1.25 2.4178c.3089.3954.9 1.3315 1.4151.689.555-.6924 0-2.0509.5609-2.73.54-.6537 1.8232-.55 2.4979-1.0539.6539-.4879.14-1.7224-.0867-2.3785a6.8769 6.8769 0 0 0 -2.7635-3.4944c-1.0648-.6633-3.4984-1.6972-4.0956-.0255a8.8393 8.8393 0 0 1 -.7051 2.323 2.0063 2.0063 0 0 1 -2.0326 1.1667zm-2.5061 11.8972a4.4955 4.4955 0 0 0 3.1268-2.0405 2.3665 2.3665 0 0 0 -1.09-3.2832c-.471-.2535-.9563-.2089-1.1294-.77a12.7812 12.7812 0 0 1 -.1721-2.716c-.1078-1.658-.1565-3.3141-.3467-4.9657-.1091-.9483.0588-3.1089-1.3686-3.0821a1.9736 1.9736 0 0 0 -1.8617 1.9943c-.1018 1.6384.069 3.34.0975 4.9815.013.7445.0314 1.4874.0716 2.2311a4.2706 4.2706 0 0 1 -.1763 2.41c-.3653.64-1.3566 1.4672-1.329 2.2272a3.5765 3.5765 0 0 0 .9071 1.6312 4.0108 4.0108 0 0 0 3.2708 1.3822zm-.64-14.0678c-.0229-.4531-.4981-.91-.9211-.4938-.4.394-.0571 1.6544-.025 2.1171.1095 1.576.3317 3.137.3564 4.7173a9.27 9.27 0 0 1 .0044 2.5882c-.2053.5554-.8335.6434-1.151 1.1494-.6315 1.0064.2951 2.5258 1.34 2.8529a2.2428 2.2428 0 0 0 2.4974-1.9593c.0028-.7317-.5652-1.1863-1.0175-1.6694a3.0045 3.0045 0 0 1 -.6836-1.9551c-.2551-2.4348-.2762-4.9032-.3998-7.3473z"/></svg>