<svg xmlns="http://www.w3.org/2000/svg" viewBox="0 0 20 20"><title>exisim-icons</title><path d="M12.6109,19.017a.4377.4377,0,0,0,.1174-.048c.1521-.0965.3151-.1847.4786-.2731.3907-.2113.5063-.36.8652-.5913a4.0716,4.0716,0,0,0,1.06-1.2022c.0614-.0908.122-.1808.1834-.2683.0526-.075.1583-.2246.2112-.2994a9.258,9.258,0,0,0,1.0662-1.7687c.02-.0491.0418-.0953.064-.14.0233-.0948.0635-.192.0851-.2641a5.4408,5.4408,0,0,0,.19-1.64.0339.0339,0,0,1,.02-.0328,5.8693,5.8693,0,0,1-.1027-.5859,2.5282,2.5282,0,0,0-.7335-1.4434,4.4634,4.4634,0,0,0-1.1046-.9136A2.7271,2.7271,0,0,0,13.9066,9.15a1.3551,1.3551,0,0,1-1.3889-1.2854.3625.3625,0,0,1,.1331-.2324,9.803,9.803,0,0,1,1.63-.295c.0173-.0023,1.74-.1448,2.1172.7443l.0007.0017.0169.0278c.2433.3482,1.1452,1.9852,1.2345,2.196l.0007.0017c.0925.22.2747.6622.3666.8828.2269.5442.533.9933.4336,1.3726a1.5288,1.5288,0,0,0,.09.3109.5059.5059,0,0,0,.7542.2327c.3805-.7346.1644-1.2133-.1049-2.0467a16.8931,16.8931,0,0,0-1.01-2.3053c-.1286-.258-.2561-.5159-.38-.7746-.016-.0332-.0321-.0649-.0483-.096-.0333-.064-.0661-.1233-.0871-.176l-.0163-.0229a2.0333,2.0333,0,0,0-.4211-.5532,5.5661,5.5661,0,0,0-.5715-.3892.6567.6567,0,0,1-.125-.0349,6.7268,6.7268,0,0,0-2.905-.419,2.6757,2.6757,0,0,0-.9865.3015,1.8207,1.8207,0,0,1-1.7083-.0692,2.34,2.34,0,0,0-1.63-.03L9.129,6.529a2.5877,2.5877,0,0,1-.2706.0338l-.01.0008c-.4448-.7465.85-1.2079,1.4407-1.4617.1445-.0622.286-.1324.4279-.2032a3.9848,3.9848,0,0,1,.7962-.3294,15.145,15.145,0,0,1,2.2354-.3929,2.3577,2.3577,0,0,1,.68.075,3.5917,3.5917,0,0,0,.5563.0843,3.8651,3.8651,0,0,1,1.7251.6336l.1461.0815a2.8206,2.8206,0,0,1,.7315.5417.884.884,0,0,0,.3789.1229.5393.5393,0,0,0,.446-.2938.6915.6915,0,0,0,.1275-.379A3.4278,3.4278,0,0,0,16.9974,3.88a8.6546,8.6546,0,0,0-1.4915-.4641c-.202-.05-.4043-.0988-.6039-.1548-.0569-.0159-.17-.0483-.2271-.0645-.224-.0638-.5547-.0091-.763-.1154-.161.14-.4422.0536-.6313.0609a8.2284,8.2284,0,0,0-1.2154.205.0375.0375,0,0,1-.0324-.0083l-.0067.0038a7.7,7.7,0,0,1-1.382.5633A5.1475,5.1475,0,0,0,7.6469,6.2867a2.1791,2.1791,0,0,0-.2561.7976c-.0255.1373-.0514.28-.0893.4088-.0135.0458-.0149.1387-.0727.1406-.0539.0017-.06-.0839-.0712-.1223-.05-.1782-.09-.3587-.13-.54-.0316-.1426-.063-.2852-.0995-.4262a1.9766,1.9766,0,0,1,.3059-1.6129A4.8237,4.8237,0,0,1,9.1811,3.1349c.6016-.3137,1.3664-.5565,1.8685-.8251a2.6278,2.6278,0,0,1,1.5045-.1328,3.2558,3.2558,0,0,0,.5992-.0436c.1708-.0342.4159-.1157.4755-.3049a.3889.3889,0,0,0-.0039-.1966.9778.9778,0,0,0-.6551-.2682,7.1154,7.1154,0,0,0-2.1566.1826c-.484.1405-.9274.2213-1.4031.4-.14.0528-.3008.23-.4308.1985a15.0829,15.0829,0,0,0-1.3035.7737,3.79,3.79,0,0,0-.685.5893l-.0184.0212c-.0631.0911-.1286.18-.1983.2642a3.1118,3.1118,0,0,0-.8593,3.2353c.107.2908.204.585.3012.879.0932.282.1793.5667.2881.8435l.007.0178a.6971.6971,0,0,0,.1591.21.7881.7881,0,0,1,.0964.1091,2.6485,2.6485,0,0,1,.1426.254c.0048.0092.0208.0264.0191.0366l-.0029.0027c-.0831.009-.1426-.0875-.214-.1318a6.4661,6.4661,0,0,0-.6857-.388,1.044,1.044,0,0,1-.5887-.7646c-.0437-.1764-.0962-.3516-.149-.5273a6.7806,6.7806,0,0,1-.21-.82,6.2393,6.2393,0,0,1,.2085-2.6023,8.6356,8.6356,0,0,1,.9421-1.4254,3.9713,3.9713,0,0,1,.8948-.8448c.1231-.0947.2451-.19.3636-.287a.1522.1522,0,0,1,.059-.021,2.0193,2.0193,0,0,0,.2314-.277c.1141-.1691.1956-.423-.0567-.515A.3736.3736,0,0,0,7.658.7612a4.6194,4.6194,0,0,0-1.128.4426,3.9646,3.9646,0,0,0-1.1029.96,7.1674,7.1674,0,0,0-1.2387,1.977l-.0042.0139a3.31,3.31,0,0,1-.1433.7932,4.5469,4.5469,0,0,0-.1694.992,4.1013,4.1013,0,0,0,.0341,1.016c.0491.2377.1294.4663.1715.7059.0035.02.0108.0556.0181.0978.037.1278.0739.2555.11.3837a3.4692,3.4692,0,0,0,2.7612,2.5207,1.7064,1.7064,0,0,1,.9369.7046c.0908.11.2668.1833.2882.33.01.0665-.0755.1581-.1186.1746a1.319,1.319,0,0,1-.4777-.0076,4.6644,4.6644,0,0,1-1.4608-.1633,4.8432,4.8432,0,0,1-2.339-1.9538,11.17,11.17,0,0,1-.9715-1.874c-.071-.1451-.1424-.2906-.2124-.4379-.3565-.7505-.39-1.5146-.6442-2.1052a2.4555,2.4555,0,0,1,.0357-.783A.9854.9854,0,0,1,2.04,4.4015c-.0022-.0157-.0041-.0319-.0056-.0488-.019-.209-.08-.4139-.325-.4533a.6775.6775,0,0,0-.4891.154,5.6249,5.6249,0,0,0-.313.8707A1.3276,1.3276,0,0,0,.88,5.45a3.44,3.44,0,0,0,.4953,1.8811c.2151.3682.3195.673.5162,1.0432.1123.2115.2248.423.3284.6385a1.2808,1.2808,0,0,1,.1147.3014,4.8489,4.8489,0,0,0,.6789,1.2286,2.4077,2.4077,0,0,1,.3925.4451c.0648.0481.1276.0976.1863.1461l.0644.0533c.67.5536,1.0484,1.251,2.0305,1.43.2275.0414.4539.0936.68.1454a8.8626,8.8626,0,0,0,1.1908.2165A3.1916,3.1916,0,0,0,9.4169,12.38a2.4326,2.4326,0,0,1,.8634-.2247c.0267-.0037.0819-.0257.1067-.0152.0678.0289.1116.188.1061.2169a4.8554,4.8554,0,0,1-.8019,1.5694,2.9259,2.9259,0,0,1-1.8471,1.0686c-.0908.0262-.1812.0521-.2707.079a1.2791,1.2791,0,0,1-.6372-.0754c-.0782-.0216-.1561-.0429-.2312-.06a7.6982,7.6982,0,0,1-3.7858-2.2751c-.1147-.1154-.236-.2247-.3571-.3337a6.331,6.331,0,0,1-.4724-.4569c-.04-.0444-.079-.0908-.1172-.1379-.1195-.1474-.232-.3047-.3486-.47a.9393.9393,0,0,0-.099-.0983c-.0308-.0167-.0612-.0342-.0911-.0531-.1935-.1219-.395-.3-.638-.2136A.4871.4871,0,0,0,.5,11.1553a2.2354,2.2354,0,0,0,.075.4844.036.036,0,0,1-.0015.0241,3.2908,3.2908,0,0,0,.45.7092,17.9148,17.9148,0,0,0,1.4331,1.4159l.109.1a6.2461,6.2461,0,0,0,1.4056.9227,1.5608,1.5608,0,0,1,.2854.1926.6178.6178,0,0,1,.257.0937,8.909,8.909,0,0,1,.8245.5492.0394.0394,0,0,1,.0142.0221c.0873.0284.1822.0879.2658.1159a1.128,1.128,0,0,0,.5328.0872c.2125-.0321.5564.1726.77.1424.4309-.0611.877-.1224,1.3137-.2029l.0558-.0105a3.3331,3.3331,0,0,0,1.0336-.3041,4.5993,4.5993,0,0,0,2.4731-3.401c.0456-.292.2513-.7887.6439-.6431.7425.2753.496,1.2961.3411,1.8523a4.4973,4.4973,0,0,1-1.6293,2.6611,2.3516,2.3516,0,0,1-.6619.2721c-.1366.0413-.2736.0827-.4041.1349a2.5706,2.5706,0,0,0-.4662.2577,1.8832,1.8832,0,0,0-.196.1583.89.89,0,0,1-.2691.1891,5.236,5.236,0,0,1-3.1257.1441c-.2375-.065-.5874-.34-.8718-.4526a.8955.8955,0,0,1-.12-.0454.09.09,0,0,1-.022-.0237,1.7641,1.7641,0,0,0-.7953-.23.4627.4627,0,0,0-.4773.4618.9778.9778,0,0,0,.6066.5438,3.147,3.147,0,0,1,.45.221,1.8387,1.8387,0,0,0,.21.1138.3225.3225,0,0,0,.0464.013c.7884.1372,1.2111.4338,1.8071.4835a10.1946,10.1946,0,0,0,2.792-.466,2.1356,2.1356,0,0,1,.243-.0421,3.77,3.77,0,0,0,.3939-.0938,2.2284,2.2284,0,0,0,.8318-.3895.0419.0419,0,0,1,.0168-.0078,3.3678,3.3678,0,0,1,.4953-.3293,5.1106,5.1106,0,0,0,2.4188-3.79c.1612-.8734-1.2665-1.66-.8332-2.853.1124-.3094.6489-.0236.9868.1919a6.2521,6.2521,0,0,1,1.0257.8948l.0336.0339a2.2392,2.2392,0,0,1,.4468,1.7883l-.0047.1589a4.5284,4.5284,0,0,1-.9724,2.3355c-.0987.1486-.2134.2929-.3246.4328a4.9984,4.9984,0,0,0-.4335.6048,1.9792,1.9792,0,0,1-.6319.6973,5.6491,5.6491,0,0,1-1.5754.9809.72.72,0,0,0-.1927.3272.6382.6382,0,0,0,.0382.2277.5062.5062,0,0,0,.1784.2637.5849.5849,0,0,0,.1941.0641l.0056,0a.99.99,0,0,1,.3732-.0868c.0617-.0353.1235-.073.1852-.1143A.2518.2518,0,0,1,12.6109,19.017Zm-.7469-8.9525a.6964.6964,0,0,1-.4517.7689c-.0979.0346-.1955.0721-.2936.11a2.0908,2.0908,0,0,1-1.5073.1825,1.5873,1.5873,0,0,1-1.0483-.8847,1.8531,1.8531,0,0,1-.0971-.3022c-.0682-.2912-.1545-.5846-.2311-.8428a1.7106,1.7106,0,0,1,.5689-1.2437,1.4452,1.4452,0,0,0,.2625-.3231c.0208-.0314.029-.077.0629-.0933.01-.005.0233.0013.0358.002a1.5786,1.5786,0,0,0,.3618-.0086,1.4363,1.4363,0,0,1,1.4957.4775A3.8135,3.8135,0,0,1,11.864,10.0645Z"/></svg>