<svg viewBox="0 0 20 20" xmlns="http://www.w3.org/2000/svg"><path d="m3.8358 11.6437c-.0137-.2673-.6295-.5879-.7883-.7705a6.5933 6.5933 0 0 1 -.8725-1.6308c-.5042-1.1053-1.2881-2.2264-1.2803-3.4869.0025-.4149.1188-1.5152.6381-1.6279.5556-.12.4521.52.4752.8288a8.5718 8.5718 0 0 0 .334 1.8678 8.117 8.117 0 0 0 4.7147 5.6621c.7129.2926 1.1451 1.1952-.0005.9686a6.4554 6.4554 0 0 1 -3.2204-1.8112zm4.84-9.3232a7.95 7.95 0 0 0 -2.1723 1.9147c-.3521.5142-.9584 1.98-.4264 2.5581.6736.7319 1.0132-.76 1.1094-1.1186a4.9659 4.9659 0 0 1 2.0635-2.6047 6.3886 6.3886 0 0 1 3.084-1.227c.3255-.0333 1.66-.1289 1.0379-.7511-.3851-.3854-1.5693-.0055-2.0231.105a15.2771 15.2771 0 0 0 -2.6735 1.1236zm10.4493 8.508a9.5843 9.5843 0 0 0 -3.36-4.5553c-.314-.21-1.6672-.9637-2.0354-.5891-.6542.6656.9231 1.3468 1.2374 1.53a9.0469 9.0469 0 0 1 3.386 4.5717c.1275.3654.1991 1.1825.7616 1.01.7595-.233.1937-1.5313.0099-1.9673zm-15.3716 6.1115c.3342.8212 1.7578 1.108 2.5165 1.2716a7.9327 7.9327 0 0 0 4.0623-.5228 5.9278 5.9278 0 0 0 2.9975-2.222c.3215-.4623 1.5215-2.5948.42-2.7233-.95-.1109-1.38 2.1512-1.8411 2.7a3.4489 3.4489 0 0 1 -1.4615.9131 12.8381 12.8381 0 0 1 -1.93.9322 4.3136 4.3136 0 0 1 -3.0419-.3982c-.3882-.1772-1.6853-.8276-1.7218.0494zm14.5395-10.7237c-.5852-.05-1.0318-.7065-1.4963-1.0045a5.7421 5.7421 0 0 0 -2.3287-.7713 6.2381 6.2381 0 0 0 -3.7882.8108c-.43.2543-1.884 1.7906-.6573 1.6135a2.9305 2.9305 0 0 1 1.3131-.1435 5.8276 5.8276 0 0 1 1.4855.7417c2 1.2063 4.481 3.241 4.225 5.8292a7.2177 7.2177 0 0 1 -1.7646 3.7869c-.5178.6184-2.29 2.5815-3.2612 2.2158-1.0351-.39 1.4111-1.8716 1.7389-2.205a7.3311 7.3311 0 0 0 2.0646-3.502c.2906-1.4624-.5179-2.482-1.5015-3.465-.2616-.2615-.7738-.9118-1.1563-.9435-.4521-.0374-.319.324-.34.7278a5.8748 5.8748 0 0 1 -.849 2.4128 6.8345 6.8345 0 0 1 -1.8249 2.7649 5.1192 5.1192 0 0 1 -3.5971.9926 8.4119 8.4119 0 0 1 -3.4428-1.6749c-.7262-.4852-2.9242-1.9942-2.5749-3.1183.3476-1.1184 2.4584 1.57 2.8144 1.8823 1.2221 1.07 2.9591 2.22 4.6661 1.8717a4.0505 4.0505 0 0 0 2.8316-3.1883c-2.4836.0831-5.93-1.26-6.6693-3.8284a6.1192 6.1192 0 0 1 .7884-5.2836c.2746-.3938 2.1263-2.6152 2.8654-1.9568.4463.3974-.5619.9733-.8184 1.1975a6.0031 6.0031 0 0 0 -1.6963 2.143c-.4839 1.1882-.5743 3.3166.2975 4.3677a3.656 3.656 0 0 0 1.7364.9106c.7305.1726.5429-.3418.5166-.9456a4.3253 4.3253 0 0 1 1.7525-3.8082 7.9313 7.9313 0 0 1 5.4456-1.1714 9.2886 9.2886 0 0 1 2.88 1.1331c.2927.1857.8041.466.883.841a.6006.6006 0 0 1 -.5378.7674z"/></svg>