<svg viewBox="0 0 20 20" xmlns="http://www.w3.org/2000/svg"><path d="m9.2264 4.7018a15.3408 15.3408 0 0 1 .07-3.3217c.2766-1.3352 1.6645-1.0755 1.5722.2692a19.8158 19.8158 0 0 0 .0527 2.94c.0711.8912-.0618 1.5794.9151 1.6987a21.1626 21.1626 0 0 0 2.7242.02c.72-.0054 2.82.3027 1.6284 1.4541-.4073.3936-1.3249.2428-1.8475.2648-.4526.0192-.9051.0521-1.3577.07-.6951.0271-1.6852-.2362-2.1038.4169-.4885.7621-.227 2.4212-.2171 3.2993.01.8433.0427 1.6865.0366 2.53-.0092 1.2569-.0322 2.5191-.1118 3.7737-.0449.7091-.3838 1.8463-1.3925 1.1833-.7555-.4965-.3875-2.2345-.3311-2.9468.087-1.0991.23-2.1974.2355-3.301.0043-.9314-.0168-1.8641-.0351-2.7953-.0128-.6556.2274-2.1446-.3152-2.4339-.7066-.3767-2.258-.05-2.9958.04-.7569.0918-2.8439.2312-2.1689-1.1669.3377-.6994 1.1788-.5246 1.8206-.5356.6353-.0109 1.27-.0388 1.9048-.013 1.2893.0524 1.9612.0324 1.9164-1.4458z"/></svg>