<svg xmlns="http://www.w3.org/2000/svg" viewBox="0 0 20 20"><title>exisim-icons</title><path d="M8.943,4.7669c-.0329-1.0848.0055-1.877.0222-2.2182.0176-.3566.041-.7124.0481-1.1088a.9814.9814,0,0,1,.7674-.931.6219.6219,0,0,1,.4624.07,1.0167,1.0167,0,0,1,.3449,1.13,6.9157,6.9157,0,0,0-.04,1.1568c.01.7288.0525,1.3108.1211,2.1235.123,1.4574-.0359,1.2815,1.1341,1.3862s3.56-.08,4.4678.0407a1.5594,1.5594,0,0,1,1.0587.4914.915.915,0,0,1-.8261,1.122c-.7533.0359-1.5075.0575-2.2615.0821-1.45.0475-1.45.0906-2.0085.0668a2.69,2.69,0,0,0-1.4742.1539c-.25.179-.3442,1.0343-.372,1.993-.0359,1.2371.0392,3.4992.0349,3.8488-.0065.5386-.0206,1.3848-.0419,2.1957-.022.8377-.0517,1.6376-.0886,2.0216-.04.4114.0324.9916-.5843,1.0771-.812.1125-1.0834-.1369-1.1878-.9341A15.3008,15.3008,0,0,1,8.6119,16.06c.0871-1.0118.1929-2.0541.2043-2.6586.0042-.2219-.018-2.5363-.05-3.7573a16.4974,16.4974,0,0,0-.0849-1.7174,19.5274,19.5274,0,0,0-2.2137-.1356,20.3826,20.3826,0,0,1-2.8462.22c-.5314-.03-1.0124-.36-1.0111-.7774a.9807.9807,0,0,1,.976-.993c.8132-.0052,1.5264-.0176,2.3392-.0354.7235-.0159,1.0391.01,1.9426.0551S8.9759,5.8517,8.943,4.7669Z"/></svg>