<svg xmlns="http://www.w3.org/2000/svg" viewBox="0 0 20 20"><title>exisim-icons</title><path d="M19.1134,15.0154a1.0828,1.0828,0,0,0-.5187-.6649,5.1745,5.1745,0,0,0-1.8477-.54c-.4148-.0289-.8636-.072-1.3376-.1171-.9064-.0861-1.8418-.1755-2.6423-.1772-.2467-.0006-.3856-.0462-.409-.2827-.0445-.45-.0919-.7334-.1466-1.0613-.0177-.1059-.0347-.2147-.0535-.3342a4.6763,4.6763,0,0,1-.0456-.6975c-.0028-.21-.0058-.4274-.034-.7a.727.727,0,0,1,.29-.6849c.2062-.1566,1.6005-1.3638,1.7729-1.529.1483-.1422.305-.2831.4565-.42.173-.1558.3518-.3171.5207-.4813a4.9825,4.9825,0,0,1,.5411-.4337,2.8032,2.8032,0,0,0,.8714-.85c.2168-.3958.6193-1.1326.1952-1.429a1.6345,1.6345,0,0,0-1.7009.1855c-.2187.1937-.8394.628-1.496,1.088-.7141.5-1.4537,1.0172-1.6922,1.24a2.3064,2.3064,0,0,1-.1982.1568c-.0176.0131-.0346.0528-.0554.0408-.008-.0046.0029-.0184.0039-.0272a.66.66,0,0,0,.0058-.1738,8.699,8.699,0,0,1-.068-1.4688,7.4818,7.4818,0,0,0-.1107-1.6947c-.1527-.71-.372-1.4212-.5838-2.1089q-.0918-.2981-.1827-.596a1.6431,1.6431,0,0,0-.29-.54A1.0251,1.0251,0,0,0,9.67.5L9.642.5a.4578.4578,0,0,0-.3545.1224,1.8732,1.8732,0,0,0-.3711.7747c-.0941.6658-.1581,1.3449-.22,2.0021-.0226.238-.0449.476-.069.7135a.1353.1353,0,0,1-.0524.1112.2089.2089,0,0,1-.1768-.0252c-.0683-.0326-.1682-.0819-.2915-.1419C7.4,3.7141,5.9339,2.9974,5.5135,2.8581a1.7835,1.7835,0,0,0-.9627-.0476c-.497.1465-.62.4076-.6362.6023a1.2794,1.2794,0,0,0,.6877,1.0351l.0758.0364c.4643.223.9444.4533,1.4076.6921.206.1062,1.5337.7823,2.0225,1.0307.032.0163.11.0339.1282.0651.1317.2284-.0262.5275-.0379.7927C8.1714,7.68,8.1429,8.3155,8.0761,8.94c-.0594.5551-.1356,1.0638-.2166,1.6024-.0832.5532-.17,1.1258-.25,1.8262-.0814.7145-.0816.7133-.7878.7563-.0388.0023-.0767.0079-.1156.0131l-.0554.0073c-.1553.02-.3108.0431-.4662.0665a8.37,8.37,0,0,1-1.0346.1127c-.5236.0128-1.0559.0008-1.5708-.0092-.3516-.0069-.714-.0141-1.0724-.0141H2.4788a1.58,1.58,0,0,0-1.3512.5853,4.2677,4.2677,0,0,0-.4838,1.4255,6.69,6.69,0,0,0,.2671,2.59,2.0527,2.0527,0,0,0,1.6155,1.3415,7.911,7.911,0,0,0,1.6563.1365c.1884.0024.3759.0043.5624.0112.09.0033.1817.0086.273.0136a3.5494,3.5494,0,0,0,1.052-.0442,5.0685,5.0685,0,0,1,2.2936-.084,15.51,15.51,0,0,0,2.548.1986c.2759.0064.5528.0115.8276.0233.02.0009.0408.0015.0612.0015a3.3658,3.3658,0,0,0,.5-.05c.1312-.02.2681-.041.4012-.0476.42-.0209.8442-.0084,1.2609-.0214.0981-.003.1982-.0144.2944-.0257a2.2178,2.2178,0,0,1,.4031-.0243c.2165.0142.4381.0374.6509.0612a8.6264,8.6264,0,0,0,.9519.0709h.0117c1.4756-.0019,1.95-.3542,2.4208-1.7845.0514-.1564.09-.32.1263-.4784a3.2483,3.2483,0,0,1,.2341-.7378A2.0254,2.0254,0,0,0,19.1134,15.0154Zm-17.3952.0234a.7845.7845,0,0,1,.7247-.6543c.3565-.0032.7081-.0039,1.0666-.0039.236,0,.475.0007.7188.001.172,0,.569-.1238.6878,0,.0914.0956-.0105.2642-.0146.3958-.012.3847-.026.782-.0709,1.1677-.0164.1413-.1944.2975-.3128.4012-.2558.224-.52.4474-.7752.663-.3185.2687-.6474.5465-.9636.8291a.5634.5634,0,0,1-.5314.1685.43.43,0,0,1-.2613-.3526c-.0328-.1657-.0695-.3309-.1059-.4959A5.0081,5.0081,0,0,1,1.7182,15.0388Zm7.4391,2.69c-.06.0451-.1418-.0379-.2088-.0554a2.3081,2.3081,0,0,1-.4644-.153q-.1881-.0951-.3788-.1894a15.837,15.837,0,0,1-1.6923-.9287,1.2742,1.2742,0,0,1-.6265-1.2458,3.4244,3.4244,0,0,0,.0359-.4439.5457.5457,0,0,1,.1448-.4046.581.581,0,0,1,.4186-.1385H6.414c.3994.0049.8.0153,1.1987.02.32.0041.64,0,.9588.0146.0263.0012.0554.0006.0855.0005a.5982.5982,0,0,1,.3148.0486.5236.5236,0,0,1,.2146.3482c.01.3453-.0025.698-.0135,1.0389-.0062.1914-.0118.3823-.0146.5737-.005.3312-.0029.6683-.002,1.0248C9.1568,17.3959,9.2933,17.6258,9.1573,17.7286Zm-3.3349-.6008c.3964.2424.781.5,1.1871.7757.12.0816.4024.1021.3672.2477-.0409.1692-.3449.0418-.5158.0631-1.0783.1347-2.7564,1.1293-3.1795.1249-.27-.6405.9417-.9667,1.6456-1.2809A.6392.6392,0,0,1,5.8224,17.1278Zm4.2092-.3847c-.0239-.3735-.0238-.7553-.0243-1.1249q0-.1588-.001-.3186a1.5074,1.5074,0,0,1,.0214-.2264c.0045-.0306-.02-.0865.0136-.1005.1-.0412.1669.13.2448.19.2034.1591.3964.3083.5906.4473q.1619.1158.3225.2317c.4408.318.8967.6459,1.3649.94.36.2267.5438.4269.4808.8329a1.8666,1.8666,0,0,0,.03.564c.0108.07.0785.1608.0292.2156-.1306.1452-.3905,0-.5848.001-.7072.0018-1.3775.0063-2.0594-.016-.0816-.0027-.2415-.1777-.2633-.2881A10.3629,10.3629,0,0,1,10.0316,16.7431Zm6.4794,1.7534c-.0408,0-.0826-.0014-.1244-.0039q-.89-.0531-1.78-.1063a.7642.7642,0,0,1-.5984-.4182.709.709,0,0,1-.0292-.6854c.0517-.0926.2343-.1482.3672-.1894l.0311-.01c.1671-.0521.3352-.101.5032-.15a6.0645,6.0645,0,0,0,2.1673-.9539,4.1176,4.1176,0,0,1,.7538-.4377c.1145-.0561.2188-.1988.3477-.1758.3726.0665.249.7447-.0116,1.2745a3.3856,3.3856,0,0,0-.2681.731A1.3112,1.3112,0,0,1,16.511,18.4965ZM13.5083,16.15c-.5452-.3372-1.108-.7064-1.7262-1.1215-.0931-.0625-.8623-.41-.75-.6786.3536-.8441,1.9458.1094,2.9444.2074.9957.0977,2.6034-.644,2.9376.2069.2067.5264-.8393.7368-1.427.8651a8.3841,8.3841,0,0,0-1.0569.3312c-.2.0726-.407.1473-.612.2113A.43.43,0,0,1,13.5083,16.15Z"/></svg>