<svg viewBox="0 0 20 20" xmlns="http://www.w3.org/2000/svg"><path d="m18.4587 10.0867c-.1647-.5334-.29-.7973-.833-.8945a10.5126 10.5126 0 0 0 -2.2919-.1048 2.27 2.27 0 0 1 -1.27-.1559 2.2156 2.2156 0 0 1 -1.18-1.5909c-.44-1.4029-.5192-2.5308-1.5784-3.6205a4.5131 4.5131 0 0 0 -3.18-1.3014 3.672 3.672 0 0 0 -3.4 1.4568c-.6333.8984-1.0559 2.5424.3066 3.0276a2.8926 2.8926 0 0 0 2.9769-1.2948c.3732-.9582.1515-2.38 1.7086-1.5823 1.3974.7159 1.5659 1.8848 1.6835 3.3669.1174 1.48-.3621 1.6384-1.7408 1.6474-1.3619.0088-2.7242.0859-4.0861.0724-.72-.0071-1.4387-.1107-2.1583-.1027-.6912.0076-.8338.0613-1.11.658a16.9114 16.9114 0 0 0 -1.1671 3.6764 17.4218 17.4218 0 0 1 -.3757 1.7976 1.956 1.956 0 0 0 -.1657 1.4743c.5148 1.0954 2.2121.9755 3.1939.9485 1.3624-.0375 2.7306-.1214 4.0918-.1384.9648-.012 1.8868.2387 2.8555.1451a24.47 24.47 0 0 1 2.5425-.2751c1.4838.01 2.9945.1749 4.473.1154 1.5257-.0615 1.8987-.735 1.6947-2.2017a32.0938 32.0938 0 0 0 -.99-5.1234zm-11.7906.0344c1.41.1758 2.6057-.1433 3.8409.6259.2135.133.8735.4855.8655.74-.01.3122-.8953.7432-1.1348.9337a13.8073 13.8073 0 0 1 -1.6808 1.0233c-.748.443-.8919.708-1.6061.052a2.3951 2.3951 0 0 1 -.9759-1.9986c-.0223-.4823-.094-1.4742.6912-1.3763zm-5.032 5.544a7.4737 7.4737 0 0 1 .4514-1.9126c.2016-.6744.2926-1.37.4959-2.0425.1248-.413.2714-1.2611.6292-1.5476a1.5208 1.5208 0 0 1 1.4959.0517c.5036.4336.3441 1.6379.1592 2.19a6.5571 6.5571 0 0 1 -1.212 1.68c-.1001.1309-2.05 2.8609-2.0196 1.581zm6.9958.7939c-.2717.3647-1.12.0321-1.4886.0451-.7182.0252-1.4262.1693-2.1482.179-.3941.0053-1.6074.2143-1.7657-.3434-.1065-.3755.57-1.17.7869-1.4526a2.8888 2.8888 0 0 1 1.2721-1.11c.5416-.1481.6853.1553 1.0408.4975.3497.3369 2.6695 1.692 2.3027 2.1844zm5.6788-2.439c-.1314.5409.107 1.2239-.1858 1.72-.3075.5207-1.0437.5487-1.5769.6142a4.0332 4.0332 0 0 1 -2.1771-.1 15.9775 15.9775 0 0 1 -1.4078-1.1342c-.7773-.5118-.3857-.5969.3474-1.0161.6173-.3531 1.18-.7782 1.7867-1.1463.7033-.4263 1.0646-.8438 1.8206-.4.5047.296 1.5729.7224 1.3929 1.4624zm-1.68-2.8429c-.2065-.1395-1.1977-.7124-.8748-1.0312.2291-.2261 1.0366.0036 1.2964.0192.4778.0286.9342-.0623 1.41-.0786a9.6451 9.6451 0 0 1 1.92-.0065c.8929.2021-.0808 1.6586-.49 2.0572-1.0715 1.0447-2.3217-.3251-3.2616-.9602zm5.5285 1.8167c.0077.92 1.0475 3.0489-.3 3.2964-1.3423.2464-2.7137-.0295-2.6821-1.623a1.8289 1.8289 0 0 1 1.0029-1.629 2.7382 2.7382 0 0 0 .7576-.7814c.1754-.2816.2232-.7465.4286-.9856.6203-.7212.7894 1.2824.793 1.7225z"/></svg>