<svg viewBox="0 0 20 20" xmlns="http://www.w3.org/2000/svg"><path d="m17.905 13.2562a28.88 28.88 0 0 1 -.2638 4.9648c-.1281.9081-.8442.961-1.6553.9826-1.561.0415-3.1215.0158-4.6823.0218-1.6434.0062-3.2864.0674-4.93.0919-1.0216.0153-4.0371.6474-4.26-.5325a9.4337 9.4337 0 0 1 .0016-1.999c.03-.8736-.0235-1.7115-.0555-2.5807-.04-1.0806-.5671-3.4111.9235-3.5837a18.4724 18.4724 0 0 1 2.83.0032 1.9768 1.9768 0 0 1 1.2788.5157c.6524.5643.3981.9791.0373 1.6941-.2016.3995-.8407.9872-.7582 1.4621.1057.6084 1.3785.233 1.81.1851.4037-.0448 1.3672-.2547 1.539.228.0912.2564-.2518.9839-.3178 1.2243a4.7537 4.7537 0 0 0 -.39 1.64c.1133.6121.59.0122.8374-.3036.8042-1.0258 1.5352-2.0559 2.4249-3.02 1.5941-1.7274-.962-.452-1.4157-1.1208-.3832-.5649 1.7952-2.6947 2.3948-2.7732a21.5333 21.5333 0 0 1 3.5049.1066c.315.0129 1.0808-.0673 1.2668.2281.1279.2031-.11.8071-.1317 1.0555a12.5326 12.5326 0 0 0 .0113 1.5097zm-12.6342-8.8197c-.163-1.5371 1.3331-2.5756 2.3506-3.4615a1.5663 1.5663 0 0 1 1.6557-.4138 11.1028 11.1028 0 0 1 2.0116.1073c.8627.3034 1.5658 1.6227 2.2139 2.2437.6024.5771 1.402.9941 1.9772 1.569.4024.4021.1842.6293-.1361 1.0356a9.2017 9.2017 0 0 1 -1.1945 1.5248 10.22 10.22 0 0 0 -1.4072 1.14c-.4848.5483-.97 1.0854-1.4881 1.6036a6.2139 6.2139 0 0 1 -1.5231 1.4022c-.61.2634-.8568-.2188-1.2672-.6236-.5508-.5431-1.1736-1.0068-1.7236-1.5538-.5816-.5786-1.3345-1.241-1.388-2.1031-.0505-.8201.0063-1.6457-.0812-2.4704zm4.8229-.6908c-.21.3451 2.0249 2.6941 2.4165 2.83.6628.2293 1.9-1.1368 1.679-1.6767-.162-.3965-1.078-.928-1.3989-1.2423-.2421-.2371-.8149-1.0882-1.166-1.1428-.4634-.0725-1.3121.8722-1.5306 1.2318zm-3.0744-.7778c.1471.2615 1.7142.1487 1.9841.0829.2881-.07 1.6877-1.0046 1.67-1.2742-.0175-.2611-1.9218-.2546-2.146-.17-.1974.075-1.6385 1.1293-1.5081 1.3613zm-.6866 1.5047c.0423 1.197-.4076 2.116.5035 3.0881a14.6355 14.6355 0 0 0 2.2863 2.0721c.2426.1637.1779.23.3655.1774a5.97 5.97 0 0 0 .8132-.7661c.42-.3609 1.4932-1.0885 1.3519-1.6634-.0845-.3437-.6863-.7776-.9271-1.03a12.9929 12.9929 0 0 1 -1.1225-1.24 1.775 1.775 0 0 0 -1.5694-.9818c-.3969-.0233-1.722-.2389-1.7014.3437z"/></svg>