<svg xmlns="http://www.w3.org/2000/svg" viewBox="0 0 20 20"><title>exisim-icons</title><path d="M17.87,13.3422c.0224.6436-.0048,1.2892-.0211,1.9336-.0083.3267-.0364.6532-.0634.9791-.0661.8011-.1284,1.6028-.2157,2.4018-.012.11-.2164.5594-1.0444.62-.59.0433-4.2949.0671-4.6277.0463-.2514-.0158-2.5.0154-2.7528.0309-.3746.0229-3.37.0676-3.7448.07-.2542.0017-1.5434.0759-1.9874.0759-1.3751,0-1.33-.1532-1.3641-.7648a19.9,19.9,0,0,1,.0166-2.0272c.0181-.3848.0011-.7647.023-1.15a6.2932,6.2932,0,0,0-.0661-.92c-.0529-.5766.0076-1.1519-.0277-1.7294-.0285-.4673-.0256-.9373-.0174-1.4058a.8751.8751,0,0,1,.95-.7994c.5157.0316,2.4374.0058,2.955.0022a1.17,1.17,0,0,1,.743.2209c.2662.1833,1.0578.6561.8434,1.1246a4.49,4.49,0,0,0-.2975.6246c-.1656.59-.7194,1.0149-.8486,1.6144-.0408.1893.01.3968.27.406a12.5051,12.5051,0,0,0,1.8761-.1652,5.45,5.45,0,0,1,.8082-.0032c.3769.02.5126.2551.3469.5962a22.7443,22.7443,0,0,0-.68,2.6538c-.05.3044.3316.13.3732.1044a1.4363,1.4363,0,0,0,.3962-.3956c.2262-.3116.8623-1.2342,1.1039-1.5327.3876-.479.8-.9381,1.209-1.3994.1979-.2232.4241-.422.6116-.653.0674-.0829.168-.433.0918-.5249-.0967-.1165-.53-.0631-.6786-.065a7.4983,7.4983,0,0,1-.9813.0419c-.3281-.0875-.4231-.2555-.2358-.5371a23.4123,23.4123,0,0,1,1.8288-2.1945.8288.8288,0,0,1,.5488-.184c.806.0258,3.3709.0859,4.1759.1391a3.2407,3.2407,0,0,1,.4129.0684A.2447.2447,0,0,1,18.0084,11,6.9416,6.9416,0,0,0,17.87,13.3422ZM5.2179,4.51a1.56,1.56,0,0,1,.2767-1.2769c.0088-.0106.0375-.0545.0807-.1173A5.2958,5.2958,0,0,1,7.1238,1.4135a1.49,1.49,0,0,0,.448-.37L7.6323.981A1.1283,1.1283,0,0,1,8.9.5591,4.0238,4.0238,0,0,0,9.945.6731c.1595.0041.3189.008.4765.0188.1494.01.3.0176.4508.0252.093.0048.279.0144.372.02.1549.0089.303.12,1.1994,1.166.0315.0367.0948.11.1265.1466a15.1385,15.1385,0,0,0,2.4217,2.2215c.2318.1719.4978.2478.5965.4577v0c.0109.0232.0658.0438.0788.0659a.51.51,0,0,1,.0284.1517c.0239.2027-.17.4234-.5012.7619-.0138.0141-.042.0419-.055.0568a3.4339,3.4339,0,0,0-.339.5158,2.773,2.773,0,0,1-1.3369,1.2274.4631.4631,0,0,0-.1227.0669c-.0465.05-.1408.1489-.1879.1984-.2267.2383-.4611.4836-.6679.7394-.4211.5209-1.4648,1.5444-2.0259,2.0937-.1822.1784-.3153.3078-.3611.3565a1.96,1.96,0,0,1-.6075.404.3036.3036,0,0,1-.1282.0271.7.7,0,0,1-.4059-.1879c-.1157-.1265-.242-.2442-.36-.37a5.997,5.997,0,0,0-.55-.5374A14.5248,14.5248,0,0,1,5.5478,7.7849a1.3776,1.3776,0,0,1-.2346-1.0483,8.501,8.501,0,0,0-.03-1.23c-.0161-.2272-.0328-.4545-.0394-.6813C5.2405,4.7213,5.2291,4.6159,5.2179,4.51ZM10.05,4.0579c.0705.0857.1391.1733.208.2611.13.1653.2593.33.4032.4815.5937.6259,1.1916,1.2471,1.8059,1.8514a.1315.1315,0,0,0,.0633.0321,1.79,1.79,0,0,0,1.3121-.8975c.1181-.1742.2207-.3589.3289-.5494.0205-.0359.0852-.1021.0825-.1434-.0036-.0557-.0668-.0866-.1054-.1209-.1453-.1291-.2941-.2543-.4425-.38-.2474-.209-.4937-.4181-.7276-.64s-.458-.4523-.6826-.6831c-.2052-.2109-.41-.423-.6231-.6258A.3508.3508,0,0,0,11.499,2.56h-.0018a5.1045,5.1045,0,0,0-1.45,1.2585C9.9689,3.9479,9.9871,3.981,10.05,4.0579ZM6.618,7.4037c0,.093.2587.3364.4865.5511.5083.479,1.0461.9486,1.5651,1.4029.1481.13.4437.39.5919.52.0393.0344.0706.1062.1154.1s.0542-.0811.0816-.1233a3.7851,3.7851,0,0,1,.6826-.6345c.1641-.1355.3162-.261.3876-.3312A6.2307,6.2307,0,0,0,11.67,7.67a.1546.1546,0,0,0,.0073-.1049,6.591,6.591,0,0,0-.996-1.1385c-.2556-.2767-.517-.5472-.7779-.8182-.1076-.1117-.3223-.3354-.43-.4472-.08-.0829-.1167-.2524-.2373-.2579-.0175-.0008-.0254.0245-.0366.0367-.0242.0261-.0444.0524-.0651.0792a1.08,1.08,0,0,1-.1457.165c-.2142.1869-.4316.3732-.65.5584-.4226.359-.86.73-1.2608,1.12C6.8726,7.0622,6.6175,7.3107,6.618,7.4037Zm4.03-5.6168c-.0441-.12-.2556.0055-.3839.0055-.2208,0-.4426-.0014-.6643-.0028-.383-.0023-.7642-.0043-1.1454,0a.4221.4221,0,0,0-.1979.0852,9.2282,9.2282,0,0,0-.7413.5677c-.2006.1745-.6844.3509-.5461.5969.0866.154.2786-.0226.3519-.0229a10.2291,10.2291,0,0,1,1.1838.1022c.5461.085.7325-.0717,1.2324-.4888a6.7127,6.7127,0,0,0,.56-.5209C10.42,1.9828,10.7005,1.93,10.6478,1.7869ZM7.1119,4.1825a7.0619,7.0619,0,0,1-.7477.0137c-.0284-.0014-.0545-.0089-.0632,0-.005.0054,0,.0179.0009.0312.0306.5562-.4221,1.4389.0852,1.6681.008.0035.0206-.0162.0275-.0216.2389-.1884.4712-.3736.6973-.5667.3632-.31.688-.6071.996-.9067.0494-.0481.1083-.103.098-.142-.0081-.0308-.0595-.0418-.0788-.0467a2.3017,2.3017,0,0,0-.5617-.0481C7.4152,4.1647,7.2631,4.1744,7.1119,4.1825Z"/></svg>