<svg viewBox="0 0 20 20" xmlns="http://www.w3.org/2000/svg"><path d="m10.3821 2.5564c-.3613.823-.8162 1.5993-1.1687 2.4271-.1252.294-.1881.6039-.4959.7528a.5394.5394 0 0 1 -.82-.3327c-.0525-.2877.3689-.7816.5114-1.0528.2423-.4612.4708-.9306.742-1.3759.1765-.29.4273-.8938.8315-.9172a.3658.3658 0 0 1 .3997.4987zm6.7561-.0806c-.3184-.7227-1.5979 2.0035-1.69 2.1926-.2292.4728-1.5549 2.4007-.94 2.798.769.4973 1.3861-1.6795 1.5695-2.0864.2482-.55 1.3357-2.2824 1.0605-2.9042zm-14.8782 7.1508c.1739.3336-.1185.7217.4859.75.505.0233.7018-.7943.8782-1.1644.4157-.8719.7745-1.7722 1.2-2.639a40.4041 40.4041 0 0 0 1.834-3.6732c.3741-1.0141-.6163-.91-.9746-.1318-.25.544-.4265 1.1238-.6775 1.665-.8216 1.7712-1.886 3.4368-2.746 5.1934zm8.9928-3.8719c.1577.3025.0152 1.0783.7307.69.4307-.2338.6949-1.3065.9089-1.7646.2236-.4786 1.3-2.0493.9581-2.49-.6346-.8164-1.2216.921-1.452 1.3328-.4085.731-.7775 1.4795-1.1458 2.2318zm7.9531.59c-.1578-.3026-.0153-1.0783-.7307-.69-.4186.2272-.7084 1.295-.943 1.74-.2444.4633-1.3266 2.0283-.98 2.4738.626.8053 1.2213-.9131 1.4754-1.3159a23.1989 23.1989 0 0 0 1.1782-2.2076zm.2074 9.4791a4.5684 4.5684 0 0 1 -1.3025 1.3713 3.9617 3.9617 0 0 1 -2.5042.714c-1.89.1283-3.7405.0083-5.6291.0274a43.4854 43.4854 0 0 1 -5.2355-.0017c-1.6461-.1835-4.0469-.3238-4.2353-2.4748a1.9829 1.9829 0 0 1 1.03-1.896c.7375-.3587 1.5487.0522 2.305-.1577.5845-.1623.4846-.967.7556-1.5245.4242-.8724.8967-1.7236 1.3428-2.585a6.4438 6.4438 0 0 1 .8862-1.5312c.5409-.5493 1.4058-.3216 2.0822-.2068 1.7164.2913 3.271-.3206 4.52 1.1958.6341.77 1.2672 1.6026 1.8668 2.396.4632.6131.13 1.2942.4721 1.8823.35.6 1.789.4184 2.438.6657a1.7916 1.7916 0 0 1 1.2078 2.1255zm-13.5816-3.7938.0178.0117a11.0472 11.0472 0 0 0 2.2946-.0229c.1694-.0042 1.29.1044 1.39-.0261.14-.1827-.3206-.5122-.4465-.6435a9.2529 9.2529 0 0 1 -1.1916-1.4021c-.2613-.4084-.3871-.9975-.9053-.5752a8.7974 8.7974 0 0 0 -1.159 2.6581zm4.009 1.3007c-.1255-.5054-1.4888-.272-1.8845-.2586-.6355.0214-1.33-.0631-1.9543.022-.7392.1007-.7476.3479-.6307.9864.1371.7481.2668.7418.996.714.66-.0251 1.3093-.1034 1.9719-.0961.3335.0037.9173.1476 1.1967.0111.4131-.202.4093-.9617.3049-1.379zm.9551-1.6271.0321.0146.0035-.0029a6.063 6.063 0 0 0 1.301.1672c.4456.01 1.58.0376 1.9166-.3062h.001c.3051-.3047-1.2638-1.95-1.4967-2.1958-.9041-.9556-1.8965-.5029-3.0584-.6324-.8253-.0921-1.374-.3525-.7424.5872.5575.8298 1.089 1.9319 2.0433 2.3681zm3.8871 1.5081c-.0258-1.0817-.9958-.4562-1.6933-.37-.4958.0615-1.03.0612-1.5287.0766-.5407.0167-.5428-.0049-.59.5426-.0456.53-.0552.8665.4062 1.0758a5.6745 5.6745 0 0 0 1.4338.188 3.4455 3.4455 0 0 0 1.6349-.1084c.5171-.2789.3799-.8751.3371-1.4048z"/></svg>