<svg xmlns="http://www.w3.org/2000/svg" viewBox="0 0 20 20"><title>exisim-icons</title><path d="M13.1464,2.23c-.0943.2148-.1975.4238-.2958.62q-.1163.233-.2365.4639l-.0064.0122c-.14.2715-.2854.5522-.4148.8354-.111.2432-.2133.4893-.3263.7622L11.86,4.94c-.04.0967-.0812.1951-.1224.2932a.7073.7073,0,0,1-.9529.1227.4925.4925,0,0,1-.14-.38c.0921-.1556.1854-.3142.2735-.4742.1294-.2359.25-.4688.3831-.7271.1649-.32.3032-.5859.4553-.8569a9.5555,9.5555,0,0,1,.6813-1.0435.5309.5309,0,0,1,.477-.1372.3906.3906,0,0,1,.2311.1929A.3417.3417,0,0,1,13.1464,2.23ZM10.895,5.9139a.8042.8042,0,0,0-.8.0318l-.01.0191a.5447.5447,0,0,0,.1946.7973.51.51,0,0,0,.7258-.1577q.06-.0886.1176-.1772A.647.647,0,0,0,10.895,5.9139Zm4.6228-3.9028a.2849.2849,0,0,0-.0972-.0161.6852.6852,0,0,0-.4039.1753,1.3378,1.3378,0,0,0-.2652.3906c-.0084.0162-.0242.0469-.0316.0626l-.1061.2031c-.1057.2021-.63,1.2524-.7352,1.456q-.2214.4285-.4459.8575c-.0622.1176-.1333.2314-.2019.3413l-.02.0327c-.0307.049-.0721.1156-.1163.1871a.51.51,0,0,0,.22.2854c.2373.1578.4978.2923.7382.1339.1483-.329.2871-.6633.4223-.9892l.007-.0166c.0982-.2369.1975-.4742.2992-.71.0192-.0454.47-.938.51-.9912a1.3035,1.3035,0,0,0,.0968-.148c.0138-.0268.038-.0727.0582-.1108l.0341-.0654A3.1555,3.1555,0,0,0,15.743,2.5.4988.4988,0,0,0,15.5178,2.0111ZM13.1224,6.5056a1.2911,1.2911,0,0,0-.5969.1191c-.1007.1625-.18.2879-.2076.3269a.1662.1662,0,0,0-.0252.1377c.0331.1367.2523.29.4463.3882a.5926.5926,0,0,0,.2464.05.3334.3334,0,0,0,.2538-.0884c.1034-.1317.2046-.2631.3-.397A.5374.5374,0,0,0,13.1224,6.5056Zm1.6613,1.6331a.6973.6973,0,0,0-.3.0623c-.0118.0238-.024.0474-.0352.0714a.5243.5243,0,0,0-.0262.4209.5794.5794,0,0,0,.3407.3125c.2834.1123.5288.0019.6947-.3282.0171-.034.0321-.069.047-.104A1.061,1.061,0,0,0,14.7837,8.1387ZM17.95,2.5663a.1841.1841,0,0,0-.1046-.102c-.31-.1162-.72.477-.8434.7422-.3673.7939-1.614,3.3046-1.9907,4.0488l-.0092.0169c-.0806.2625-.0711.55.2593.5911a1.04,1.04,0,0,0,.5958-.1339l.1786-.4219c.2671-.6294,1.3914-2.998,1.6511-3.6425l.0158-.04C17.9125,3.102,18.0275,2.7426,17.95,2.5663ZM7.7627,5.9049l-.0189.0369a.6607.6607,0,0,0,.076.667.4376.4376,0,0,0,.3926.1484.4935.4935,0,0,0,.36-.2851l.1047-.2105.0279-.056A.5485.5485,0,0,0,7.7627,5.9049Zm2.8266-4.3542a.2947.2947,0,0,0-.2316-.144.67.67,0,0,0-.5254.3066c-.2646.3921-.4972.8047-.7228,1.2036l-.0533.0942c-.082.146-.5273,1.2691-.6765,1.7222-.011.0338-.0255.0666-.0385.1a.5542.5542,0,0,0,.186.433.4152.4152,0,0,0,.6163-.0532c.02-.0575.0381-.1152.0549-.1734a5.6044,5.6044,0,0,1,.54-1.1983,5.7576,5.7576,0,0,0,.4464-.9345c.0666-.1939.1565-.3975.2439-.5943l.0439-.0991c.0341-.0772.0682-.1543.1012-.2315A.5118.5118,0,0,0,10.5893,1.5507Zm5.692,8.4208a.8189.8189,0,0,0-.316.2014c-.0458.0791-.0929.1631-.1413.2543a.2606.2606,0,0,0,.0172.2705.7124.7124,0,0,0,.4795.2841.7868.7868,0,0,0,.6157-.3559c.0228-.0462.0447-.0932.0672-.14C16.87,10.1911,16.6542,9.8618,16.2813,9.9715Zm2.0754-3.0491a.1961.1961,0,0,0-.1171-.0376.9055.9055,0,0,0-.3523-.0334.4907.4907,0,0,0-.3065.2429c-.03.0484-.09.1449-.12.1939-.09.1443-.1889.32-.2857.5145-.1966.395-.53,1.1631-.6567,1.4321a.5986.5986,0,0,0,.901.3237l.0141-.01c.1976-.4485.4723-1.0764.5459-1.2362.1432-.3115.2953-.6431.4385-.9746A.36.36,0,0,0,18.3567,6.9224ZM3.476,9.3479a.0468.0468,0,0,1,.0059.0213c.0052.1963-.03.4351.1182.59a.5339.5339,0,0,0,.727.0231c.9137-1.8148,1.97-4.13,2.2026-4.6164.0168-.0337.0933-.1855.2029-.4l.0612-.1211c.2844-.5595.9762-1.9682,1.18-2.3989.0345-.0722.0627-.1387.0953-.2187a.9357.9357,0,0,1,.0494-.0977.8789.8789,0,0,0,.1041-.2544.275.275,0,0,0-.0034-.189A.6244.6244,0,0,0,7.84,1.4291a.5643.5643,0,0,0-.5061.1968,3.9154,3.9154,0,0,0-.3387.7114c-.0089.022-.0257.0645-.0336.086-.04.1-.3343.7714-.3629.8671a2.105,2.105,0,0,1-.1516.4117c-.31.5766-2.5354,4.7219-2.608,4.8879C3.7851,8.7135,3.6409,9.011,3.476,9.3479ZM3.1784,7.36a.7425.7425,0,0,0-.8631-.6074c-.05.0939-.1.1878-.1479.2818a.6939.6939,0,0,0-.0469.5874.574.574,0,0,0,.3605.3247.48.48,0,0,0,.3821-.0141.7431.7431,0,0,0,.2918-.4854c.0075-.0283.0168-.0552.025-.083ZM5.5066,2.0551a.3821.3821,0,0,0-.2276-.2139.6178.6178,0,0,0-.7569.271,2.0507,2.0507,0,0,0-.2666.6079c-.0192.06-.3195.6735-.6033,1.2507a14.7264,14.7264,0,0,1-.5931,1.4337L2.9663,5.57l-.1523.2718c.06.2936.3086.64.6412.5665a.6775.6775,0,0,0,.2389-.1137c.0478-.0729.0956-.1438.1427-.211.26-.37.628-1.5192.8562-1.9723.2833-.5625.5972-1.1835.6018-1.1935.0124-.0293.0385-.09.0519-.1206A1.1136,1.1136,0,0,1,5.4,2.6938a.86.86,0,0,0,.1047-.2564A.6681.6681,0,0,0,5.5066,2.0551ZM19.4347,16.3837a1.0328,1.0328,0,0,1-.2622.3394c-.0291.0278-.0572.0556-.0839.0835-.1931.2011-.39.3989-.5866.5966l-.1362.1358a2.6971,2.6971,0,0,1-1.7894.8681c-.317.0191-.6344.0411-.9514.0635-.7688.0532-1.52.103-2.2555.124-.3609.0054-.7208-.02-1.0823-.05l-.0251-.0019c-.2829-.023-.5757-.0464-.8611-.0484q-.2319-.0021-.4646-.0019c-.7609,0-1.5218.0122-2.2071.0229-.1985.0035-.5954.0093-.7934.0122-.2765.004-.5575.0157-.829.0274l-.0148,0a13.8088,13.8088,0,0,1-1.7346.0005,28.2158,28.2158,0,0,1-3.277-.4927,1.7169,1.7169,0,0,1-.8754-.6348,2.214,2.214,0,0,1-.668-1.8862A1.8244,1.8244,0,0,1,2.03,13.9672a4.0788,4.0788,0,0,1,.6068.0054,3.2279,3.2279,0,0,0,1.6066-.145c.041-.0342.0316-.09.0237-.1387-.0019-.0122-.0044-.0244-.0054-.0366a1.3965,1.3965,0,0,1,.199-.91c.2385-.5117.5016-1.0039.7347-1.438.112-.21.2241-.4194.3337-.63.0934-.1787.1842-.3589.276-.54.2479-.4888.4607-.896.6938-1.294.0118-.02.0325-.0561.0474-.0825L6.56,8.7338a1.7523,1.7523,0,0,1,.4789-.5991,1.6433,1.6433,0,0,1,.88-.1558,2.6934,2.6934,0,0,1,.7312.0811l.0923.019A6.7364,6.7364,0,0,0,10.9912,8.2a2.5519,2.5519,0,0,1,2.4539,1.1084c.2256.2769.4236.5757.6152.8648.1649.25.3145.4731.476.686a4.7034,4.7034,0,0,0,.4295.4751c.117.12.2385.2432.3476.3721a1.1618,1.1618,0,0,1,.3106.5551c.0079.063.0266.2193.0484.4043l.0143.1187c.039.3291.0874.7383.0992.8056.0262.1441.0682.2041.25.2535a4.3789,4.3789,0,0,0,.4552.081c.13.0191.26.0362.39.0532a4.8415,4.8415,0,0,1,1.7774.4688A1.8348,1.8348,0,0,1,19.4347,16.3837ZM5.8424,12.5863l.0178.0118.0207-.0044a1.8709,1.8709,0,0,1,.1866.0268c.0143.0025.0425.0073.0583.0108a.34.34,0,0,0,.0548.0039c.0331,0,.0686-.0034.1057-.0069s.073-.0078.11-.0088l.33-.0083c.8211-.021,2.0782-.0527,2.75-.0678l.0163.0029c.0237.0044.0883.0166.1106-.041.0222-.0552-.0287-.0913-.05-.1065l-.0168-.0136c-.15-.1768-.2745-.3228-.41-.4556L9.0759,11.88A5.81,5.81,0,0,1,7.765,10.2265a1.1017,1.1017,0,0,0-.4172-.49.1519.1519,0,0,0-.1308-.0029,1.4,1.4,0,0,0-.4849.687c-.0286.0654-.0563.1294-.0859.19-.1886.3857-.358.79-.5224,1.1811l-.0819.1958c-.0479.1148-.1106.2647-.1477.3487-.0059.0131-.0148.03-.0242.0483C5.8246,12.47,5.7861,12.5439,5.8424,12.5863Zm4.0122,1.3018c-.0558-.2246-.1442-.2368-.437-.2759-.0533-.0073-.11-.0151-.1723-.0254a1.0429,1.0429,0,0,0-.23.001l-.0143.001c-.042.0034-.0835.0068-.1244.0083l-.6172.022c-.2909.0107-.5812.02-.872.0288q-.3578.011-.7149.0234a2.9108,2.9108,0,0,1-.3022-.0151,1.7672,1.7672,0,0,0-.3575-.0049,1.8963,1.8963,0,0,0-.59.2012.27.27,0,0,0-.1259.1733,4.2829,4.2829,0,0,0,.1086.7314c.0257.125.0479.2325.0553.3038a.3229.3229,0,0,0,.1822.2788.659.659,0,0,0,.2829.0542,1.2387,1.2387,0,0,0,.1244-.0069c.5387-.0576,1.1194-.1133,1.7183-.13.2893-.0069.5851-.0005.8739.0063l.0726.002c.274.0068.5579.0141.8344.0029a.2365.2365,0,0,0,.2469-.2056c.0385-.1846.0676-.3408.0879-.5014A2.987,2.987,0,0,0,9.8546,13.8881Zm.9559-1.6284.032.0146.0035-.0029c.01.0024.0222.0059.0375.0088s.0469.0083.0637.0122l.0143.0024a7.581,7.581,0,0,0,1.35.1495c.0583,0,.1171-.0015.1748-.004a6.6821,6.6821,0,0,0,1.5316-.2871.08.08,0,0,0,.0479-.021h.0005a.21.21,0,0,0,.0232-.2016,4.8542,4.8542,0,0,0-.7737-1.1c-.0834-.0967-.1649-.1909-.2409-.2852-.0252-.0307-.0751-.0923-.1-.1245a5.1028,5.1028,0,0,0-.8606-.9116,2.0372,2.0372,0,0,0-1.5271-.1929c-.0163.0025-.0494.0059-.0662.0078a4.7854,4.7854,0,0,1-1.337-.0688l-.0188-.0025c-.1812-.0268-.3762-.0542-.5718-.0732a.312.312,0,0,1-.0449-.0093.13.13,0,0,0-.1318.0132c-.038.04-.0158.0923-.001.127l.0079.02a1.0616,1.0616,0,0,0,.1679.34,8.8281,8.8281,0,0,1,.6522.9268A4.0664,4.0664,0,0,0,10.8105,12.26Zm3.89,1.5093-.0074-.0918c-.0222-.2862-.07-.4488-.15-.5127a.3685.3685,0,0,0-.2874-.0279l-.037.0069-.0237.0044c-.1684.0312-.4824.0888-.6034.1279a3.5724,3.5724,0,0,1-1.1386.1484l-.0385,0a7.3813,7.3813,0,0,0-.7786.043,2.9359,2.9359,0,0,1-.3491.0059l-.0765-.002a1.18,1.18,0,0,0-.2276.0049.1826.1826,0,0,0-.1259.0913.4328.4328,0,0,0,.0044.2617.6412.6412,0,0,1,.0163.0835c.0133.1563.0222.2695.0217.4126,0,.0469-.0015.0957-.0034.1553a1.2572,1.2572,0,0,0,.0281.4165c.0632.18.196.1938.49.208.0558.0024.1136.0054.1733.01a3.3494,3.3494,0,0,1,.3614.0546l.0168.003c.0864.0161.1753.0327.2652.0424.1135.0127.2281.0293.3426.0469h.0005a4.1442,4.1442,0,0,0,.6142.062,1.63,1.63,0,0,0,.2079-.0122c.1526-.0195.2874-.0351.41-.0493.712-.082.84-.0967.9184-.5664A4.77,4.77,0,0,0,14.7007,13.769Zm-11.71-1.8968a.1436.1436,0,0,0,.0627.0132c.1693,0,.4024-.2324.46-.3276.0457-.0749.1309-.25.2528-.488-.0818-.4243-.5208-.5154-.9037-.4695-.1271.2618-.2215.461-.2478.53A.5738.5738,0,0,0,2.9905,11.8722Zm6.0144,1.7667v0Z"/></svg>