<svg xmlns="http://www.w3.org/2000/svg" viewBox="0 0 20 20"><title>exisim-icons</title><path d="M19.4664,12.8507c-.01-.07-.02-.1445-.029-.2251-.0115-.105-.0744-.34-.17-.6964a17.4577,17.4577,0,0,1-.5832-2.8068,11.8662,11.8662,0,0,0-.6462-1.9957,12.2042,12.2042,0,0,1-.51-1.5076,15.4514,15.4514,0,0,0-.5042-1.9036A1.5247,1.5247,0,0,0,16.14,2.69a1.0008,1.0008,0,0,0-.8926.1176c-.1386.0908-.2635.1823-.3822.2694a1.7432,1.7432,0,0,1-1.03.4689h-.0087c-.425,0-.8922-.6971-1.1721-1.1142-.0572-.0854-.1094-.1624-.1551-.2266-.2421-.3392-.9795-1.3695-2.016-.8636-.7934.3872-.6689,1.7719-1.5687,2.7215-.08.0848-.23.046-.3432.0694-.1474.0306-.2926.06-.43.0849a6.516,6.516,0,0,0-1.9639.9176c-.0111.0067-.0315.0291-.0443.027-.0692-.0116-.1079-.1226-.1967-.2111-.1834-.1829-.3368-.3683-.4848-.5475-.4379-.53-.8125-.99-1.642-.908-.4925.0488-1.12.7921-1.3311,1.1234l-.1167.1827a7.5855,7.5855,0,0,0-.8506,1.5971c-.078.23-.1623.4627-.2472.6969A12.4055,12.4055,0,0,0,.6209,9.2747,6.2482,6.2482,0,0,0,.5871,10.53c.0094.23.0189.4685.0135.6989-.0047.2024-.0285.411-.0515.612-.0189.1653-.0381.3306-.0477.4964-.0294.5051.4039,1.55.8231,1.6035.074.0094.222.0284.2959.038a5.6533,5.6533,0,0,0,2.4753-.0443c.2246-.0648.3143-.0381.4328.1354.3225.4723.6824.9642,1.1234,1.5548l.0752.1017a2.4639,2.4639,0,0,0,.5436.5889c.8877.6131,1.7957,1.1921,2.6488,1.734a2.7384,2.7384,0,0,0,.8362.3948l.1763.04A10.6181,10.6181,0,0,0,11.83,18.79q.1806.0068.3614.0067a17.3063,17.3063,0,0,0,2.043-.1489c.7908-.0946,1.5885-.2309,2.36-.3629.1381-.0236.4142-.0711.5523-.0944.0491-.0083.1022-.015.1566-.0222.2583-.0343.5257-.07.6444-.2439a1.8093,1.8093,0,0,0,.2212-.8362l.0149-.1392a3.4691,3.4691,0,0,0-.0178-.7707c-.0833-.7267-.8029-1.4-.5321-2.0974.04-.1037.3851-.0552.5615-.066a2.6447,2.6447,0,0,0,.64-.0848C19.5785,13.6567,19.5312,13.3187,19.4664,12.8507Zm-4.0821,2.6387c-.0165-.0424-.03-.0906-.0434-.14-.064-.2282-.1694-.61-.6877-.4733a.5419.5419,0,0,0-.38.2627.5869.5869,0,0,0,.0333.4935,2.1653,2.1653,0,0,1,.1826,1.1726l-.0053.0467c-.02.1745.1071.4237-.0173.5909-.0287.0385-.1421.0238-.1894.0318-.2825.0478-.6029.1032-.9215.1422a.2464.2464,0,0,1-.2154-.0506.6006.6006,0,0,1-.055-.4777,2.8485,2.8485,0,0,0-.3272-1.9417c-.0828-.135-.3337-.3017-.494-.2463-.1688.0584-.26.2955-.2993.4323a.4677.4677,0,0,0,.0333.2791.8482.8482,0,0,1,.0269.0882c.0222.1017.0463.1981.0694.2915a2.4674,2.4674,0,0,1,.041,1.4145c-.08.306-.1842.3185-.2911.307-.0767-.0082-.1547-.0163-.2328-.0236a3.3529,3.3529,0,0,1-.8491-.18c-.3144-.1162-.3677-.1678-.3731-.1832-.0142-.0405.05-.1284.0974-.1932l.0376-.0525a1.39,1.39,0,0,0,.1359-1.4666c-.1388-.1981-.3051-.4019-.4877-.4029h-.0073a.3878.3878,0,0,0-.3195.1436.5523.5523,0,0,0-.0694.4795c.1084.4308.19.7422-.1509,1.0835A.4855.4855,0,0,1,9.2862,17c-.2642-.1364-.4975-.2692-.7243-.4121-.1934-.1218-.3551-.2122-.5065-.2969a5.3253,5.3253,0,0,1-.8463-.5547,7.2272,7.2272,0,0,1-.7379-.7036,7.84,7.84,0,0,1-.4882-.6815c-.0876-.1321-.1784-.2689-.28-.4125-.134-.1894-.2216-.3254-.2954-.44A4.1659,4.1659,0,0,0,5.1,13.0647a3.5441,3.5441,0,0,1-.6772-1.6439c-.0183-.0945-.0425-.2-.0679-.3094a3.9982,3.9982,0,0,1-.1316-.8044A4.2188,4.2188,0,0,1,4.808,7.7821c.064-.0878.1248-.174.1851-.2593a5.2971,5.2971,0,0,1,.801-.961,6.41,6.41,0,0,1,1.3325-.8381c.1629-.0824.399-.2137.6232-.3383.238-.1323.5324-.3024.5754-.3118.0331-.0073.0728-.0075.1138-.0126.0492-.006.1312-.0428.17-.0168.1237.0823.07.279.0429.37a1.2056,1.2056,0,0,1-.1383.2815,1.5472,1.5472,0,0,0-.1595.3205,1.8224,1.8224,0,0,0,.1629,1.5354,4.1555,4.1555,0,0,0,.5793.8656c.1321.1658.2689.3374.3826.5133a5.5158,5.5158,0,0,0,1.456,1.5369c.1913.1359.3811.2743.5711.4126.4832.3515.9827.7151,1.5012,1.0337.3977.2443.8165.4649,1.2218.6786.388.2046.79.4167,1.1687.6473a2.9147,2.9147,0,0,1,.5745.5137c.0935.0992.1869.1981.2848.29a1.8884,1.8884,0,0,0,.1513.1239.9789.9789,0,0,1,.1933.1745,2.9779,2.9779,0,0,1,.4573,1.4834c.008.0616.024.1847.0323.2463a4.5081,4.5081,0,0,1,.0391.8964.2657.2657,0,0,1-.1157.1484,6.4041,6.4041,0,0,1-.9456.1007c-.15.0132-.2993.0257-.4491.041-.0916.0094-.2089.0959-.2646.0352C14.9366,16.8363,15.5546,15.9278,15.3843,15.4894Zm-6.2836-1.376a.4441.4441,0,0,1-.1.5552.434.434,0,0,1-.2438.0622.9651.9651,0,0,1-.4073-.0979,4.017,4.017,0,0,1-.9186-.5985A8.8033,8.8033,0,0,1,6.21,12.7215a3.7413,3.7413,0,0,1-.895-2.1653,1.26,1.26,0,0,1,.093-.5832c.0644-.1278.2429-.1426.3451-.14.07.0019.303.0188.3634.1561a1.72,1.72,0,0,1,.1287.5774,1.9166,1.9166,0,0,0,.1764.7133,8.469,8.469,0,0,0,.7426,1.2737,7.1943,7.1943,0,0,0,1.0121.8579c.0863.0531.1731.102.2574.1494A1.4994,1.4994,0,0,1,9.1007,14.1134Zm.9456-1.3253A.451.451,0,0,1,9.66,12.98a1.234,1.234,0,0,1-.6641-.2564A2.8452,2.8452,0,0,1,7.985,11.6083a.4841.4841,0,0,1,.1041-.6242c.0914-.0568.5093-.2282.6945.3138v.0005c.0728.2141.2926.2985.4949.45a1.145,1.145,0,0,0,.1518.09,1.4514,1.4514,0,0,1,.1832.11l.0544.04C9.9879,12.2228,10.2907,12.444,10.0463,12.7881ZM7.0293,9.9137a.5483.5483,0,0,1-.1215-.4226.4918.4918,0,0,1,.54-.4718.4625.4625,0,0,1,.4694.533.4574.4574,0,0,1-.5084.4877h-.013A.4844.4844,0,0,1,7.0293,9.9137Zm4.523,3.337a.5022.5022,0,0,1,.0661.5061.5906.5906,0,0,1-.4058.32.8375.8375,0,0,1-.1012.0062.6063.6063,0,0,1-.428-.1561.47.47,0,0,1-.1451-.3779.6371.6371,0,0,1,.4506-.4858A.5957.5957,0,0,1,11.5523,13.2507Zm2.2435.1041a.596.596,0,0,1,.066.507v0a.5318.5318,0,0,1-.4058.32.8418.8418,0,0,1-.1012.0063.6064.6064,0,0,1-.428-.1561.47.47,0,0,1-.145-.3779.6384.6384,0,0,1,.45-.4858A.59.59,0,0,1,13.7958,13.3548Z"/></svg>