<svg viewBox="0 0 20 20" xmlns="http://www.w3.org/2000/svg"><path d="m19.4808 12.8686a38.2761 38.2761 0 0 0 -1.7635-6.6413c-.4664-1.4184-.6545-4.5609-2.8456-3.1495-.9944.6405-1.4131.487-2.0835-.453-.4754-.6666-1.0594-1.6219-2.03-1.3872-.9329.2255-.9951 1.3954-1.363 2.1174a1.2239 1.2239 0 0 1 -1.0473.825 5.5726 5.5726 0 0 0 -1.625.6313c-.6421.3589-.5627.4364-1.0513-.1318a4.5772 4.5772 0 0 0 -.9049-.9577c-.9716-.6091-1.7578.1284-2.303.9006a12.2825 12.2825 0 0 0 -1.59 3.5625 15.5592 15.5592 0 0 0 -.37 3.9209c-.0329.7513.1736 1.6393.9524 1.8741a5.29 5.29 0 0 0 1.8982.1148c.6914-.0735.8573-.3186 1.328.2341a10.9268 10.9268 0 0 0 2.1754 2.4151 10.2643 10.2643 0 0 0 3.4467 1.8505 13.0033 13.0033 0 0 0 4.6152-.0086c.7327-.105 2.8188-.1217 3.1609-.89a3.1156 3.1156 0 0 0 .0972-1.4935c-.0933-.55-.7352-1.2787-.5914-1.84.1484-.5794.7662-.2406 1.2625-.412a.8482.8482 0 0 0 .632-1.0817zm-4.0891 2.6433c-.1071-.2757-.1336-.5611-.4675-.6394-.59-.1384-.6789.3889-.6125.7827.0942.5585.47 1.518-.03 1.8452-.3123.2048-1.04.2086-1.2078-.0886s.0637-1.2611-.0577-1.662c-.0836-.276-.3162-.9407-.7511-.8279-.4743.1231-.2272.8151-.17 1.093.1726.8372.347 1.8676-.7731 1.6642-1.2876-.2338-.7163-.291-.5468-1.18.0905-.4744-.4863-1.8606-.9763-1.0163-.1847.3181.1562.7116.0547 1.0538-.1979.6669-.6192.4737-1.0665.2155a9.258 9.258 0 0 1 -2.0824-1.444 15.5905 15.5905 0 0 1 -1.6147-2.2251 5.0865 5.0865 0 0 1 .2625-6.053 7.6859 7.6859 0 0 1 2.3914-1.64c.7517-.4161 1.0783-.4891.68.4587a2.5 2.5 0 0 0 .669 2.578 10.6459 10.6459 0 0 0 2.4139 2.467c1.1587.8377 2.39 1.4618 3.61 2.1938a3.9246 3.9246 0 0 1 1.8544 2.1278c.0759.3115.3753 1.4665.17 1.777-.2263.3413-.9194.2339-1.2881.2692-1.2363.1185-.1955-1.065-.4614-1.7496z"/></svg>