<svg viewBox="0 0 20 20" xmlns="http://www.w3.org/2000/svg"><path d="m10.75 7.1848c.1564.4188.649-.0484.8692-.3415a15.7771 15.7771 0 0 1 1.2417-1.2416 9.0053 9.0053 0 0 1 1.8075-1.2887c.9521-.55 1.9125.283 1.1464 1.2331a6.1089 6.1089 0 0 1 -1.2224.89c-.6448.4631-1.2689.9543-1.9133 1.418-.559.4023-1.821 1.2629-.5093 1.3516 1.0837.0734 2.2143.1056 3.3.08a10.8073 10.8073 0 0 1 3.0921.0226c.4676.1324.8505.31.7428.8491-.1508.7548-.9963.7038-1.578.7259a12.3 12.3 0 0 1 -3.3651-.2684c-.6185-.141-2.1348-.4083-2.1918.6218-.0381.69 1.1669 1.4339 1.6219 1.7859a21.7358 21.7358 0 0 1 1.8 1.628c.5034.486 1.3966 1.1794 1.21 1.9584-.0832.3479-.4441.91-.8223.9678-.5329.0815-.7648-.4872-1.0327-.8539a26.6037 26.6037 0 0 0 -2.1627-2.4018c-.4116-.4387-2.0566-3.0173-2.3081-1.4126a4.0167 4.0167 0 0 0 -.0659 1.0515 8.5334 8.5334 0 0 1 -.0749 1.3541c-.0741.9944-.141 1.9928-.2707 2.9819-.0913.6966-.5577 1.6355-1.4372.9853-.5744-.4245-.333-1.5961-.2653-2.1938.1138-1.0053.2889-2.0024.4153-3.0059.0526-.417.4964-2.1027-.1876-2.0063-.2157.03-.8232 1.0655-.9907 1.2694q-.4288.522-.8638 1.0389a16.2727 16.2727 0 0 1 -1.3139 1.4835c-.2472.2316-.5256.4309-.76.6769-.2.2106-.4737.7973-.745.8975-.465.172-.8025-.47-.7839-.8872a2.1788 2.1788 0 0 1 .69-1.1932 23.4746 23.4746 0 0 0 2.4118-2.5423c.3976-.57 1.8435-1.9148.7352-2.1871a7.01 7.01 0 0 0 -1.72.07c-.6175.0237-1.2354.0372-1.8531.0562-.6895.0213-2.6844.4581-2.72-.7-.0326-1.0846 1.875-.7761 2.5138-.7829.512-.0054 1.0287.0058 1.54-.0223a5.8531 5.8531 0 0 0 2.1431-.2922c.7789-.5687-.7583-1.3564-1.2131-1.6321a6.8751 6.8751 0 0 1 -2.3526-2.5153c-.2368-.4509-.4923-1.0084-.03-1.34.6429-.4612 1.1059.2274 1.4347.6482.7617.9747 1.73 1.79 2.5754 2.689.3436.3652 1.7444 2.1568 1.9559.7685.1371-.9-1.2191-7.5861.9132-7.0478.6732.17.54.8949.4613 1.3875-.1034.6443.039 1.2593-.02 1.91a10.9564 10.9564 0 0 0 .1521 3.3563z"/></svg>