<svg xmlns="http://www.w3.org/2000/svg" viewBox="0 0 20 20"><title>exisim-icons</title><path d="M10.6331,7.3765c.379-.0124.585-.5.8011-.8045.1678-.2363,2.254-1.5483,3.26-2.2756.6752-.488,1.1259-.2271,1.3031.121.3033.5958.0081,1.1054-.5643,1.4619-.9752.6074-2.0486,1.5259-3.0051,2.1619a5.6644,5.6644,0,0,0-.8117.7414c-.0641.064-.128.219-.0953.2691a.4038.4038,0,0,0,.2874.1678c.6122,0,2.08.0273,2.9073.0779,1.01.0617,2.67-.1577,3.5806-.037a1.5647,1.5647,0,0,1,1.0622.493.9181.9181,0,0,1-.8288,1.1259c-.756.036-1.5127.0576-2.2692.0824-1.455.0476-3.249-1.1558-4.02.067-.4377.6942,1.5759,2.0019,2.4079,2.6788.1527.1242.2407.3262.39.4567.3427.3,1.8756,1.681,1.8619,2.2267a2.136,2.136,0,0,1-.57,1.0972.682.682,0,0,1-.6464.15,4.0129,4.0129,0,0,1-.883-1.1463c-.8655-.9166-1.6816-1.7729-2.4874-2.6388-.4219-.4534-.8111-.938-1.2456-1.3784-.1141-.1157-.38-.3614-.6036-.2016-.5738.4112-.0083,1.3306-.05,1.952-.0738,1.0961-.2495,3.4649-.3639,4.2179-.0624.41-.0224.9953-.645,1.0468-.82.0679-1.0779-.1969-1.1383-1.0015-.0732-.9735.4917-3.917.5813-5.1271.0288-.39.3238-1.0934-.1264-1.2709-.1813-.0714-.2445.1885-.3123.2731-1.0618,1.3229-1.4627,1.78-2.5473,3.084-.3595.4322-.84.7619-1.2413,1.1619a7.6183,7.6183,0,0,0-.5892.7375c-.2188.2806-.4128.3382-.6641.0081-.435-.5713-.3409-.8966.0408-1.4782.55-.8381,1.461-1.2539,2.0683-1.9944.2512-.3063.6665-.9428.8276-1.1657.39-.54.7673-1.0893,1.1241-1.6513a.378.378,0,0,0-.124-.34,2.1193,2.1193,0,0,0-.7255-.0736c-1.3514.1156-3.5237.11-4.955.208a.92.92,0,0,1-1.0145-.78c.0015-.4807.3607-.7712.9793-.7751C2.4046,9.3,3.8741,9.2871,4.69,9.2692c.726-.0159,1.4747-.2269,2.1574-.2941A.3848.3848,0,0,0,7.1184,8.72c-.05-.7248-1.7267-1.4632-2.0011-1.704a12.0966,12.0966,0,0,1-1.72-1.9915,2.8389,2.8389,0,0,1-.45-1.2691c-.0328-.2434.8444-.714,1.3642-.1734a5.2056,5.2056,0,0,1,.36.5215,4.3412,4.3412,0,0,0,.3324.3829c.2625.2782.5305.5511.7936.8286a2.78,2.78,0,0,0,.2636.29A22.6951,22.6951,0,0,1,7.7351,7.2806c.32.2935.6525,1.1783,1.242.8924,1.508-.7316.1148-3.1877.2556-4.6911.0726-.7757.2285-1.3826.3423-2.1528a.9848.9848,0,0,1,.8836-.8275.6239.6239,0,0,1,.4511.13A1.02,1.02,0,0,1,11.1072,1.8a1.9858,1.9858,0,0,0-.1744.9539c.1879,1.4363-1.0336,3.13-.4783,4.4685C10.4846,7.2954,10.5546,7.3791,10.6331,7.3765Z"/></svg>