<svg viewBox="0 0 20 20" xmlns="http://www.w3.org/2000/svg"><path d="m19.347 1.2057c-.4782-.72-1.8095-.3656-2.4434-.0938a8.7481 8.7481 0 0 0 -2.2691 1.6466 11.25 11.25 0 0 1 -2.1222 1.4863c-1.1182.5944-.5411-.3893-1.33-.79-1.2289-.6234-3.304 1-4.173 1.6879a38.4921 38.4921 0 0 0 -4.7524 4.5778 6.7 6.7 0 0 0 -1.7549 4.6834 3.3583 3.3583 0 0 0 .9255 2.2161 7.1609 7.1609 0 0 0 2.0377 1.9927 6.2091 6.2091 0 0 0 4.4937.3375 7.9574 7.9574 0 0 0 2.1363-1.4677c.7192-.5307 1.4359-1.0681 2.1586-1.5893a14.1394 14.1394 0 0 0 2.11-2.1879 15.7513 15.7513 0 0 0 1.7446-2.5317 15.1665 15.1665 0 0 0 1.498-2.94c.1392-.45.1728-.9253-.27-1.2043-.2219-.14-1.0032-.0009-1.0706-.0679-.2256-.2245 1.6218-2.3861 1.7985-2.6056.5225-.6488 1.8913-2.2338 1.2827-3.1501zm-5.1851 6.7495a20.4125 20.4125 0 0 1 -2.6 3.0842c-.3065.328-.9016.8848-.3958 1.3077.574.48 1.1865-.4645 1.5192-.8154a19.8057 19.8057 0 0 0 1.4815-1.6759 12.9145 12.9145 0 0 1 1.0846-1.542c.2076-.202.8626-.6414 1.1831-.4972.4595.2066-.2531.8481-.4172 1.1192-.7517 1.2418-1.426 2.4777-2.2986 3.6523a17.5988 17.5988 0 0 1 -1.1009 1.4929 11.823 11.823 0 0 1 -1.713 1.3341 27.3362 27.3362 0 0 1 -3.0367 2.216 2.0218 2.0218 0 0 1 -1.4.3271 10.8056 10.8056 0 0 1 -1.8168-.2837 5.5861 5.5861 0 0 1 -2.6072-2.5733 3.6527 3.6527 0 0 1 .1526-3.2191 14.9933 14.9933 0 0 1 2.4233-3.0415 16.3037 16.3037 0 0 1 2.6621-2.6055c.5412-.4262 2.5086-2.2941 3.3079-1.78 1.0894.7009-1.2885 2.3144-1.7541 2.6375-.44.3055-1.0077.6127-1.2247 1.1417-.3677.8959.4066.8933.9559.4733 1.1117-.85 2.078-1.8812 3.2675-2.6276a30.88 30.88 0 0 0 3.5954-2.65 13.3877 13.3877 0 0 1 1.8119-1.272c.3765-.2308 1.3094-.7046 1.0822.1942-.11.4344-.7127.9612-.9891 1.3015-.37.4554-.7831.8947-1.1084 1.3825-.6604.9904-1.4348 1.9069-2.0647 2.919zm-4.7488 5.7789c-.6523 1.615-1.8814 3.5869-3.9151 3.2416-1.6114-.2736-2.8314-2.6032-2.5857-4.0882a3.6231 3.6231 0 0 1 4.2194-2.8739c1.2837.3091 2.827 2.3696 2.2814 3.7205z"/></svg>