<svg xmlns="http://www.w3.org/2000/svg" viewBox="0 0 20 20"><title>exisim-icons</title><path d="M19.2472,1.0479A.836.836,0,0,0,18.65.6844a4.3093,4.3093,0,0,0-3.3571,1.2443c-.2326.1889-.44.3792-.6382.5611a5.9629,5.9629,0,0,1-1.0082.8024c-.24.14-.4455.28-.6441.4161a5.2642,5.2642,0,0,1-.9171.54c-.1362.0581-.2947.1327-.4.0583-.0385-.0273-.0515-.136-.0742-.208-.0941-.3-.2489-.8032-.7621-.8646A3.0384,3.0384,0,0,0,9.353,3.51l-.1886.0646a11.2676,11.2676,0,0,0-2.8339,1.889C4.9546,6.6881,3.58,8.0316,2.2462,9.4582A6.4688,6.4688,0,0,0,.3909,14.2541a2.97,2.97,0,0,0,.804,2.0822,10.669,10.669,0,0,1,.8311.9961,3.8016,3.8016,0,0,0,2.1413,1.4355,12.3973,12.3973,0,0,0,1.4418.242c.1281.0161.3843.048.5123.0654a1.9313,1.9313,0,0,0,.3868.0281,1.5566,1.5566,0,0,0,.3518-.0641c.1255-.0361.2769-.069.4373-.1041a6.3882,6.3882,0,0,0,.8261-.22,6.0283,6.0283,0,0,0,1.284-.928c.1285-.1085.2332-.1969.2944-.2422.29-.2149.5763-.4206.8386-.6089.2721-.1954.5191-.3728.72-.5247.1635-.1239.2754-.2209.3706-.3031a2.0847,2.0847,0,0,1,.3827-.2823,4.0943,4.0943,0,0,0,1.4821-1.4356,2.4261,2.4261,0,0,1,.3576-.4138,10.0453,10.0453,0,0,0,1.4734-1.8493c.1115-.1851.2212-.3619.3281-.5336A12.8545,12.8545,0,0,0,16.76,9.5491a5.3549,5.3549,0,0,1,.29-.5549c.335-.59.7137-1.26.5-1.767-.1862-.4424-.6741-.5781-1.3681-.4242l-.0177.0034c-.0731-.0726.1113-.32.2366-.4957.0764-.1075.1337-.1988.19-.2907a3.9131,3.9131,0,0,1,.2773-.4064c.0988-.1262.2046-.2679.3166-.418.1449-.1944.2994-.404.4634-.6078.0521-.0648.1572-.1939.21-.2584A11.0926,11.0926,0,0,0,18.66,3.2671a5.766,5.766,0,0,0,.6911-1.4465A.93.93,0,0,0,19.2472,1.0479ZM14.059,7.8014c-.02.0315-.0583.0946-.0777.1262a8.8423,8.8423,0,0,1-.5915.8856c-.4069.4795-.8725.965-1.323,1.4338-.3284.3418-.6554.683-.9641,1.025a.6372.6372,0,0,0-.1326.8494.5377.5377,0,0,0,.4115.2059.749.749,0,0,0,.5827-.2833c.2194-.2479.482-.5227.7494-.8026.4152-.4349.8442-.8852,1.1411-1.2651.4425-.5665.7285-1,1.0563-1.5029.023-.0353.068-.1067.0918-.1414a1.7747,1.7747,0,0,1,1.33-.6692c.051.0041.1414.0191.1671.0709.0806.1623-.187.5143-.3817.771a2.4935,2.4935,0,0,0-.344.5346,4.9911,4.9911,0,0,1-.5944,1.0868c-.1381.2066-.2944.44-.4688.7459a14.7725,14.7725,0,0,1-.98,1.41c-.3077.4108-.6262.8352-.8912,1.2474A6.573,6.573,0,0,1,10.9467,15.16a4.0578,4.0578,0,0,0-.7214.605,4.2211,4.2211,0,0,1-.5813.5092c-.5985.4274-1.5143,1.0083-2.0846,1.3229a1.5662,1.5662,0,0,1-1.4544.1444,1.7771,1.7771,0,0,0-.555-.082,2.797,2.797,0,0,1-2.4648-1.2535c-.12-.15-.2518-.2909-.382-.43a4.2982,4.2982,0,0,1-.4652-.5508c-.0489-.0745-.0943-.1381-.1351-.1957a1.3046,1.3046,0,0,1-.2806-.6327c-.025-.134-.0636-.27-.1032-.4114A2.4549,2.4549,0,0,1,1.59,13.1291a7.6021,7.6021,0,0,1,.68-1.79A6.1685,6.1685,0,0,1,3.6666,9.6381,11.6307,11.6307,0,0,0,4.7237,8.4205c.2562-.3226.4981-.6276.7145-.857a11.4468,11.4468,0,0,1,1.48-1.2827l.0439-.0337c.9722-.7466,2.2824-1.976,3.4726-1.99.0366,0,.1577.114.2283.3329a.8258.8258,0,0,1-.2083.8864c-.1844.17-.3761.33-.561.4967A9.13,9.13,0,0,1,8.3076,7.209a2.7927,2.7927,0,0,0-.8033.8718.7055.7055,0,0,0,.01.7306.2752.2752,0,0,0,.1968.1027.7741.7741,0,0,0,.4955-.1486c.4214-.3484.8536-.7145,1.2865-1.082.5249-.4456,1.05-.8919,1.5619-1.3071a5.5437,5.5437,0,0,1,.675-.4511,5.7058,5.7058,0,0,0,.6532-.433l.1545-.1235a11.6107,11.6107,0,0,1,1.039-.7677,18.01,18.01,0,0,0,2.3082-1.8189,6.0642,6.0642,0,0,1,1.1618-.7252,2.213,2.213,0,0,0,.3382-.2221.7171.7171,0,0,1,.4639-.1987.479.479,0,0,1,.4077.1728.29.29,0,0,1,.0178.2892,18.7735,18.7735,0,0,1-1.4843,1.94c-.1513.1839-.2649.3213-.3059.3756-.0795.1057-.1372.1687-.1821.2186a.9933.9933,0,0,0-.1384.1808c-.0386.0672-.1168.2012-.1555.2683a3.9617,3.9617,0,0,1-.5378.8125c-.0916.11-.2185.2623-.4133.5059A12.248,12.248,0,0,0,14.059,7.8014ZM9.3073,13.5839a6.3589,6.3589,0,0,1-.4446.9153c-.268.4442-.5477.8832-.7522,1.186a2.51,2.51,0,0,1-.19.2732,3.0445,3.0445,0,0,1-2.08.8916,2.0812,2.0812,0,0,1-.45-.0226,2.3449,2.3449,0,0,1-1.5262-1.0546c-.0471-.0664-.1422-.1987-.19-.2648a3.4255,3.4255,0,0,1-.9216-2.4093,3.1364,3.1364,0,0,1,.9843-2.1827A3.5284,3.5284,0,0,1,7.0246,9.8611l.0959.0256a1.6578,1.6578,0,0,1,.61.2512C8.5391,10.7717,9.7585,12.4665,9.3073,13.5839Z"/></svg>