<svg xmlns="http://www.w3.org/2000/svg" viewBox="0 0 20 20"><title>exisim-icons</title><path d="M18.2108,3.9673c-.189.0214-.2242-.0271-.2642-.1089s0-.01-.01-.1218-.0963-.4393-.1233-.5577.0879-.108.1784-.1426c.5434-.208.58-.72.0915-1.046a.5445.5445,0,0,0-.6673.1657c-.1105.1375-.1126.1451-.2167.0712s-.3159-.3546-.4167-.43a1.8123,1.8123,0,0,1-.1706-.1264c-.07-.0634.0326-.1528.0771-.2118s.0122.0316.077-.0923a.68.68,0,0,0,.08-.5334.4955.4955,0,0,0-.6392-.2655A.5372.5372,0,0,0,15.82.9567c-.0336.1426.0058.0573-.0063.1365a.1264.1264,0,0,1-.149.1195,3.72,3.72,0,0,0-1.5323-.0693,4.5814,4.5814,0,0,1-.61.1529c-.1121-.0113-.0711-.0488-.1175-.2332a.5112.5112,0,0,0-.6221-.2585c-.2427.0977-.3514.22-.3865.3933s.0159.19.03.298.0853.13.1207.2015.2073.142.104.2538a4.1088,4.1088,0,0,1-.5472.5187c-.1344.0775-.2134-.0957-.3189-.1879a.5122.5122,0,0,0-.8307.3628c.0037.31.1506.2831.2209.3974s.192.1233.1408.2177a.8825.8825,0,0,1-.2419.2436c-.0889.0686-.1777-.0129-.2495-.12a.5184.5184,0,0,0-.9284.1913c-.0261.3545.1955.32.3189.45s.0941.2173-.0022.3354a4.437,4.437,0,0,1-.4442.4113c-.0986.0827-.1607-.0521-.2032-.095a.621.621,0,0,0-1.0939.32c-.0246.18.1735.3415.28.3882s.2115.1334.1531.2a7.699,7.699,0,0,0-.8146,1.018.2158.2158,0,0,1-.2634.0818.5966.5966,0,0,0-.6018.1014c-.1869.1975-.3831.6387.0843.6964.0523.0064.0871.0019.1472.0089s.2743.0163.2712.1138a.8562.8562,0,0,1-.0226.1588,1.5994,1.5994,0,0,1-.3727.7489c-.169.1207-.405.3569-.5134.423s-.0446.0709-.1155.0068-.1281-.1846-.2782-.2362c-.4382-.1508-.692.347-.6783.62s.09.2611.13.3913.131.0327.0365.1814-.4984.6136-.62.7583-.1441.2307-.2395.296-.0555.0208-.1476-.09-.047-.2312-.362-.3413-.6894.3551-.6258.6586.0936.3195.1946.4359.13.0423.178.0914.1581.0051.0779.114a4.9673,4.9673,0,0,1-.52.6231c-.1106.0762-.0947.0364-.1547-.141a.47.47,0,0,0-.6274-.1949c-.2326.14-.3311.2629-.3505.4476s.0251.1873.0559.31a.4767.4767,0,0,0,.2168.25c.0771.0561.1783.1336.1266.22a2.3278,2.3278,0,0,1-.2085.2466c-.0638.077-.1071.1822-.1725.2452s-.1175.0085-.178-.0851a.7559.7559,0,0,0-.31-.27c-.4522-.2108-.7365.2735-.7039.5752a.5273.5273,0,0,0,.1981.435c.1146.1271.22.0971.3218.1289s.2083.0445.1839.162-.0774.3287-.1113.4309-.154.0707-.2361.0307a.52.52,0,0,0-.7308.527c.0321.3074.0693.2956.1992.4333a.5369.5369,0,0,0,.449.1184c.1231-.0091.316-.0679.3615.0133s.0192.09.0415.1589.0161.0021.0289.1168.1878.4319.218.5554-.0595.11-.2008.1792-.3774.3547-.3055.5778.0235.2577.2134.4241a.6129.6129,0,0,0,.7221-.033c.1343-.1453.2261-.2668.3424-.2052a1.025,1.025,0,0,1,.3044.2709c.0716.0946-.1076.1843-.1725.2981a.5277.5277,0,0,0-.1031.43.5923.5923,0,0,0,.6066.4314.8917.8917,0,0,0,.3762-.195c.1084-.0775.2264-.36.3073-.34A3.17,3.17,0,0,0,6.99,18.5966c.0719-.0363.2208.098.2749.19a.424.424,0,0,0,.282.163c.1145.0265.0033-.018.1936.0326s.5932-.227.566-.4271a.6208.6208,0,0,1-.017-.149.6021.6021,0,0,0-.16-.288c-.0487-.0647-.22-.1034-.0906-.1987a4.1669,4.1669,0,0,1,.7359-.4859c.168-.0458.1347.01.2877.1713s.5937.2659.7664.012a.4916.4916,0,0,0,.0357-.5558c-.06-.1551-.2614-.2576-.1882-.36a.7412.7412,0,0,1,.311-.2581c.1147-.0393.1341.073.2723.2121a.5085.5085,0,0,0,.702.0685.54.54,0,0,0,.0306-.7354c-.133-.1556-.2278-.15-.1569-.27a1.9764,1.9764,0,0,1,.4358-.4016c.1168-.0813.1558-.0169.3147.08a.563.563,0,0,0,.8585-.5889c.0025-.176-.0991-.178-.1629-.2651s-.2057-.0587-.0886-.228.37-.4152.5264-.672a1.65,1.65,0,0,0,.2026-.773c.0667-.4226.4653-.6561,1.0737-.72a1.9894,1.9894,0,0,0,.9664-.8079c.0117-.02.1089.0422.1875.0726.7378.285,1.08-.534.4835-1.0313-.049-.0409-.1935-.018-.0742-.2216s.4813-.8368.6954-1.11c.0388-.05.1317-.0874.2678.0479a.5344.5344,0,0,0,.7112-.1092.7767.7767,0,0,0,.08-.5588.362.362,0,0,0-.3087-.3054c-.1124-.0318-.2259-.0255-.1968-.1362a1.82,1.82,0,0,1,.1987-.472c.0715-.087.0894-.0884.2374.0281s.5909.1455.7275-.0991a.712.712,0,0,0,.0868-.5581c-.0217-.2384-.2826-.3083-.4265-.3095s-.2-.0311-.2-.1194,0,.01.0488-.1349.2618-.6222.3435-.7949.0094-.3724.0342-.4923.1488-.0288.2262-.0309a.67.67,0,0,0,.2517-.0079,1.8387,1.8387,0,0,0,.3736-.1857c.137-.0809.1492-.3484.117-.4315s-.01-.02-.0107-.029C18.7777,4.0237,18.4,3.9459,18.2108,3.9673ZM15.7315,2.4461a5.0592,5.0592,0,0,1,.6148.5252,1.6208,1.6208,0,0,1,.3962.8583,1.3976,1.3976,0,0,1-.0136.3135c-.0129.137-.0273.2169-.0381.3469a4.43,4.43,0,0,1-.448,2.1525c-.2118.3233-.3352.5389-.54.8994s-.616.9072-.8318,1.2647a11.8706,11.8706,0,0,0-.62,1.1285,2.769,2.769,0,0,0-.1452.44c-.056.1706-.0982.2984-.1534.4245a1.0084,1.0084,0,0,1-1.3271.52c-.5607-.2872-.9465-.7118-1.28-.381s-.2975.4506.02.7887c.0112.012-.0277-.0281.0953.071s.6515.6011.5416.9334a2.6728,2.6728,0,0,1-.4494.7852,9.952,9.952,0,0,1-.9468,1.1385,20.73,20.73,0,0,1-1.8341,1.65c-.3527.2485-.3344.2018-.4692.2966s-.1105.0752-.1405.0978a7.7357,7.7357,0,0,1-1.607,1.1152,2.1474,2.1474,0,0,0-.3437.1886,2.8188,2.8188,0,0,1-.7849.1115,1.86,1.86,0,0,1-1.636-.7557c-1.1-1.3238-.8164-2.37.1754-3.4942.3163-.3584.4405-.4514.6539-.696.49-.5614.831-1.0591,1.26-1.6107.0763-.0981.1311-.169.1914-.245A20.5438,20.5438,0,0,1,7.5894,9.5071a.4186.4186,0,0,1,.5177-.0995c.19.1317.85.4137,1.06.2721a1.1589,1.1589,0,0,0,.4578-.462c.1991-.4977-.5354-1.0147-.7777-1.25s-.2185-.1759-.1325-.3875.03-.0507.2118-.3286a6.8943,6.8943,0,0,1,.9076-1.1591c.1443-.1386,1.0107-.9061,1.1482-1.058.6287-.6951,1.0387-1.2922,1.6242-1.898.1952-.2018.264-.4029.4929-.534A2.3009,2.3009,0,0,1,15.7315,2.4461Z"/></svg>