<svg viewBox="0 0 20 20" xmlns="http://www.w3.org/2000/svg"><path d="m19.348 6.1427a.5408.5408 0 0 1 -.0235-.1075l.0062-.0015c-.1324-.8068-2.4723.0161-1.6731-1.4845.2667-.5.9128-.3539 1.29-.702a.5887.5887 0 0 0 -.577-1.0113c-.5739.1386-1.0587.96-1.6681.4073-.4976-.4511-.1955-.96.0854-1.4.2066-.3236.6012-1.1707-.1521-1.2123-.46-.0254-.685.62-.8931.9185-.3483.4991-.4066.4438-.9418.3539-.419-.07-1.0991.1414-1.469-.0317-.4051-.1895-.41-.7875-.6671-1.1-.33-.4006-.9368-.3983-.9919.2751-.0417.5105.66.894.41 1.4242-.0846.18-.4035.3057-.5471.436a5.2944 5.2944 0 0 0 -.59.7227c-1.2073 1.5436-1.4948-.9502-2.5041-.2747-.6229.4168.2862.9737.4541 1.3375.2594.562-.0773.72-.5192 1.0923a17.38 17.38 0 0 0 -1.6066 1.5363c-.4562.4937-.7847.8972-1.2372.2794-.2353-.3212-.5372-1.024-1.079-.7756-.5879.27-.1734.9547.0886 1.2786.3768.4659.6513.6364.2887 1.235a7.3634 7.3634 0 0 1 -1.2721 1.2426c-.3974.3911-.5618.745-1.1487.429-.4177-.2249-.7783-.9977-1.35-.77-1.4179.5657 1.07 1.6585 1.1911 1.958.1522.3764-.2277 1.0174-.2336 1.4412-.007.5008.3447 1.2371.0723 1.6837-.26.4261-.9409.433-1.228.837a.5821.5821 0 0 0 .4937.9837c.6452-.0153.9224-.8066 1.5125-.8551a1.56 1.56 0 0 1 1.2049.8827c.23.61-.4826.9876-.59 1.5363-.1426.73.44 1.0463.9681.5566.3945-.3658.3945-1.1.7795-1.4007.2714-.2122.6485-.0459.97-.1078.3147-.0606.5716-.2932.88-.37.8019-.2.7026.4909 1.012 1.0134.19.3209 1.1426.935 1.2586.1906l-.0029-.0009.0227-.1015.004.0008c.0238-1.0683-1.483-1.7064.09-2.3363.9316-.373 1.0742.2554 1.643.8651.3983.427 1.2554.9578 1.1-.099-.0367-.2493-.7145-1.8625-.9474-1.8838a6.704 6.704 0 0 1 1.8473-1.1753c.3737.0464.5871.4369.9124.5811.3452.1531.8794.1611 1.0045-.3025.1222-.4525-.2727-.5909-.5426-.8316-.8136-.7258.2623-1.32.7234-2.0145.3109-.468.5908-1.6391 1.2588-1.6838.3354-.0224 1.8023.8531 1.482-.3818-.19-.7327-1.3759-.2473-.9931-1.2615.2166-.5736.4211-1.175 1.0316-1.2255.4016-.0329 1.5821.168 1.3629-.5959zm-3.1292-.5355a11.9334 11.9334 0 0 1 -.54 2.2772 12.7848 12.7848 0 0 1 -1.0766 1.6836 15.5579 15.5579 0 0 1 -2.5953 3.5207 26.8134 26.8134 0 0 1 -3.6747 2.5278 3.7239 3.7239 0 0 1 -3.3544.7126 2.8424 2.8424 0 0 1 -1.6932-2.1576 3.5775 3.5775 0 0 1 1.4148-3.1156c1.0461-1.0448 2.0982-2.092 3.1568-3.124.9261-.903 1.9585-1.6747 2.8384-2.6247.825-.8908 1.7933-2.0743 3.1184-2.1169 1.2179-.0391 2.7007 1.0871 2.4058 2.4169z"/></svg>