<svg viewBox="0 0 20 20" xmlns="http://www.w3.org/2000/svg"><path d="m18.2515 4.7756c-.0328-1.2686-1.9273-.8192-2.88-.8986-1.258-.1048-2.4647-.02-3.7115-.02-.5279-.7453.8274-2.4494-.0151-3.1155-.3058-.2415-1.3599-.1695-1.7511-.1969a10.426 10.426 0 0 0 -1.6929-.0161c-.9356.09-.7958.7494-.8639 1.5454-.0314.3672-.0182.7539-.0639 1.1176-.0978.7773-.553.466-1.2222.4269-.7982-.0466-1.603-.0336-2.4023-.0552-.6687-.0181-1.3513-.25-1.6872.4117a5.7028 5.7028 0 0 0 -.1 3.0451c.2719.783 1.4372.6737 2.1114.6946a17.6628 17.6628 0 0 0 2.1984.0071c.2311.4622-.1676 1.64-.1143 2.1859.07.7189.5391.9691.925 1.5228.5511.7907.3585 2.1776.3657 3.1371.005.6678.0471 1.33.0634 1.9955a20.3938 20.3938 0 0 0 -.0254 2.1964c.103.7356.7058.646 1.34.6747a23.379 23.379 0 0 0 2.4212.0482c.4989-.03.9069.014 1.0469-.5089a7.7009 7.7009 0 0 0 -.0121-1.5272 2.2129 2.2129 0 0 1 .0489-.8024c.1569-.2675.191-.0913.5056-.2424a6.631 6.631 0 0 0 1.8869-1.9828 11.8737 11.8737 0 0 0 1.2289-1.6867c.4253-.8233.0487-1.2892-.5519-1.866a21.7162 21.7162 0 0 0 -1.88-1.6935c-.6555-.4972-.85-.6769-.8907-1.4927 1.6266.082 3.288.2092 4.9153.1427.6718-.0275.8289-.1129.8479-.8233.0198-.7391-.022-1.4846-.041-2.2235zm-4.4269 8.9951c-.2408.3178-2.2474 2.71-2.5719 1.6462-.1057-.3464.6985-1.1615.8958-1.4153.3763-.4842 1.1817-1.198 1.1934-1.8681.0157-.8941-1.6346-1.3952-2.295-1.9017-.2731-.2094-.661-.752-1.082-.63-.72.2087.0888.971.3675 1.1882.5174.4029 1.9534 1 1.7017 1.7587a8.0131 8.0131 0 0 1 -1.3447 1.75c-.2724.3566-.5942 1-1.0118 1.2088-.2466.1233-.8988.1628-.9385-.163-.0355-.2924.8609-1.1 1.0481-1.3436.2494-.3245.8181-.9261.8553-1.3756.0439-.5313-.4843-.6307-.91-.8082a6.8339 6.8339 0 0 1 -1.7676-1.0828 1.7156 1.7156 0 0 1 -.7715-1.482c-.0294-.7681.5612-1.08.6541-1.75.1657-1.1969-2.119-.6386-2.8343-.776-.4808-.0923-.9971-.34-.8554-.9387.1369-.5781.695-.52 1.1781-.5289.5318-.01 1.0665.0026 1.5982.0219a3.9815 3.9815 0 0 0 1.3037.0464c.6668-.3009.049-1.41.18-1.9871a1.1611 1.1611 0 0 1 1.2554-.87 1.1048 1.1048 0 0 1 .9268 1.1948c.0087.7091-.4256 1.2269.4787 1.5164a19.4873 19.4873 0 0 0 4.0912.31c.4493.0413 1.1633.2372.8722.8732-.2636.5761-1.0913.3714-1.57.343a20.11 20.11 0 0 0 -2.1428-.1373c-.8276.042-.9723.4026-1.026 1.1823a1.7449 1.7449 0 0 0 .8837 1.8394c.5937.4645 1.159.986 1.7287 1.4812.4436.3857 1.076.6956.9381 1.3255-.111.5069-.722.9672-1.0292 1.3723z"/></svg>