<svg xmlns="http://www.w3.org/2000/svg" viewBox="0 0 20 20"><title>exisim-icons</title><path d="M11.48,3.2188c.0021.3174-.0665.7791.4207.6828a19.9068,19.9068,0,0,1,4.261.0875c.6247.053,2.0561-.2974,2.08.6211.0145.5671.0375,1.7.0418,2.267.0032.4253-.3557.5716-.7227.585-.1446.0053-.66.0339-.9919.0124-1.275-.0824-2.5648-.0936-3.8176-.1492-.5189-.023-.317-.07-.3573.5836a1.3011,1.3011,0,0,0,.7171,1.1815,8.7753,8.7753,0,0,1,1.0985.8742c.51.4608.9927.9514,1.4935,1.4224.7252.6821-.0113,1.4319-.4658,2.05a18.6442,18.6442,0,0,1-2.3063,2.7192.8246.8246,0,0,1-.5293.1451c-.8057-.01.102,3.0007-1.0618,3.0615-.5406.0282-2.9076.33-3.3992-.062a1.9921,1.9921,0,0,1-.48-1.5414c.0169-.5394-.05-1.0927-.0212-1.6314a8.5325,8.5325,0,0,0-.0573-.9091c-.0154-.4471.002-.8952-.006-1.3427-.02-1.1258-.04-1.25-.0777-2.3754-.0091-.2745-.9426-1.0438-.9787-1.3146A11.4,11.4,0,0,1,6.41,7.7188c.0073-.4341-.26-.34-.834-.3383A26.7166,26.7166,0,0,1,2.558,7.258c-.489-.1879-.55-1.0272-.6048-1.5175C1.8947,5.2132,1.6671,3.548,2.48,3.58c1.4082.0547,3.1079.0728,3.8745.1016.3021.0113.7493.2179.9812.0029.2593-.24.1778-1.06.2039-1.4093C7.6537.7492,7.92.5108,9.1815.5c.5726-.0048,1.141.0709,1.7128.0807.67.0114.7345.1126.8.4673C11.77,1.4535,11.4763,2.6783,11.48,3.2188Zm-.6554,7.0232a2.0732,2.0732,0,0,0,.3664.2794c.6363.4059,1.276.8049,1.9027,1.2258.8778.59-2.7163,3.4048-1.8324,3.868a1.9445,1.9445,0,0,0,1.603-.2163,8.9481,8.9481,0,0,0,1.3483-1.5141c.3953-.52,1.6367-1.6247.9077-2.249-.1062-.0909-.2137-.18-.3163-.2752-.6285-.5806-1.6579-1.4168-2.2919-1.9912-.076-.0689-.8773-.5071-.8892-.9514a8.5987,8.5987,0,0,1,.0864-1.3958c.0814-.6093,1.795-.2037,2.2425-.2149.69-.0175,1.3833.1,2.0761.1411.1427.0085.3915-.0266.4162-.1.0476-.1422.0755-1.178.0948-1.4059a.4109.4109,0,0,0-.2995-.3334A41.2864,41.2864,0,0,1,11.49,4.824c-.8412-.1281-.8123-.3054-.6-1.0464a1.903,1.903,0,0,0-.3246-1.3842c-.4552-.7816-2.13-.299-2.3186.43A4.13,4.13,0,0,0,8.3172,4.56c.0712.3243-.0008.3892-.3233.3692-.7608-.0473-.71-.0537-1.4712-.0706-.719-.0159-2.6077-.0858-2.6435.2829-.0755.7768-.1757,1.6987.7627,1.71.4789.0057,1.1345.061,1.6135.0636.2745.0015.9551-.1179,1.1916.02.6173.3587-.4646,1.0253-.4932,1.6813a2.8783,2.8783,0,0,0,.2719,1.7065,9.1446,9.1446,0,0,0,1.3862,1.1636,13.7922,13.7922,0,0,0,1.8323.8763c.2729.1538-.7045,1.3955-.939,1.6975A8.761,8.761,0,0,0,8.27,15.7168c-.0892.1534,1.1254.1981,1.2771.1742a.9668.9668,0,0,0,.5514-.2975c.4158-.4929.7913-1.02,1.1844-1.5319.3667-.4777.7365-.9531,1.1042-1.43.587-.7615-1.4035-1.5106-1.9078-1.8343-.3265-.21-1.0165-.5426-.6095-.9024a.4033.4033,0,0,1,.3717-.0944A1.68,1.68,0,0,1,10.8245,10.242Z" style="stroke:#000;stroke-miterlimit:10;stroke-width:0.5px"/></svg>