<svg xmlns="http://www.w3.org/2000/svg" viewBox="0 0 20 20"><title>exisim-icons</title><path d="M19.4061,6.0944A7.0023,7.0023,0,0,0,17.448,2.1132,5.4233,5.4233,0,0,0,14.3025.7816C13.6174.7148,12.9124.7053,12.23.6969,11.6509.69,11.0513.6839,10.4636.6383L10.3747.631a3.9754,3.9754,0,0,0-2.05.2c-.3683.1684-.75.32-1.12.4666a13.6765,13.6765,0,0,0-1.8494.84,5.7242,5.7242,0,0,0-1.477,1.4875c-.2616.3389-.4981.7112-.727,1.0722A9.5481,9.5481,0,0,1,2.0054,6.2576,4.7153,4.7153,0,0,0,.9405,8.7116c-.07.318-.241.6476-.3367.9634a3.3179,3.3179,0,0,0-.0125,1.5836c.0624.3913.3236,3.0526.2976,3.7209-.002.0523-.0039.158-.0062.3013-.0077.4749-.0218,1.36-.0733,2.1517a1.3886,1.3886,0,0,0,.9717,1.3117c.1727.0478.3452.1026.5178.158a5.3849,5.3849,0,0,0,1.2134.29,17.3552,17.3552,0,0,0,3.3975.0209,4.6616,4.6616,0,0,0,.5115-.1025,3.4526,3.4526,0,0,1,.8-.1245,1.5736,1.5736,0,0,1,.4488.0618c.15.0438.2971.0961.4445.1485.1706.0606.3473.1245.522.1695a4.48,4.48,0,0,0,2.5523-.5482,6.7863,6.7863,0,0,0,.4634-.7866c.0358-.0668.0647-.1214.0816-.1517.1451-.2592.2593-.4656.3464-.6446a13.7131,13.7131,0,0,0,.3618-3.0646.8455.8455,0,0,1,.2489-.6307.9.9,0,0,1,.7071-.1716,2.3652,2.3652,0,0,0,.7542-.1046,3.2636,3.2636,0,0,0,1.0262-.5345c.1706-.116.3473-.2354.5324-.3368.8494-.4655,1.4878-.7044,1.8986-1.5325a10.2181,10.2181,0,0,0,.7071-1.7456A8.7843,8.7843,0,0,0,19.4061,6.0944ZM18.09,9.0475a2.8907,2.8907,0,0,1-1.2312,1.7908c-.1736.1025-.3429.2116-.5115.32a4.9277,4.9277,0,0,1-1.7835.8379,1.1484,1.1484,0,0,1-.5125-.0691,1.62,1.62,0,0,0-.2092-.0523c-1.263-.1889-1.3651.3967-1.4781,1.0105-.0135.0732-.0271.1444-.0418.2123a5.3781,5.3781,0,0,0-.02,1.2647,14.6163,14.6163,0,0,1-.2565,2.1306,2.6725,2.6725,0,0,1-.5625,1.0566,1.5761,1.5761,0,0,1-1.1413.5074,1.3243,1.3243,0,0,1-.4968-.0942,1.331,1.331,0,0,1-.9613-1.5889c.03-.2542.1639-2.27.2092-2.5366l.0083-.05c.075-.4407.1016-.7178-.206-.8494a.8873.8873,0,0,0-.68-.0638c-.3084.0727-.5132.7437-.4466,1.2113a14.985,14.985,0,0,1-.2249,2.6036c-.0047.4466-.0175.7272-.1234.842a1.5291,1.5291,0,0,1-.8264.3117c-.0659.0115-.1263.0232-.1736.0335-.1644.0357-.46-.1429-.545-.2-.1437-.0967-.389-.2929-.4205-.5073-.0068-.046-.02-.1381-.0272-.1841-.0713-.4689-.0154-1.5668-.061-2.4655-.0034-.0669-.0083-.135-.0136-.2029a4.6339,4.6339,0,0,1-.02-.4833c.0162-.61-.3511-.8918-.4944-.8944H4.8334c-.2385,0-.6187.545-.66,1.3829-.0279.5659.0848,2.9739-.0387,3.182a.6371.6371,0,0,1-.6287.3337c-.8813-.0552-1.4421-.2355-1.5167-1.0335-.0544-.5817-.0413-1.773-.0283-2.432.0066-.3347-.0936-2.1341-.123-2.2638-.0177-.0784-.0352-.1569-.0471-.2353-.0142-.0942-.0325-.1894-.05-.2835a3.6842,3.6842,0,0,1-.0878-.7584c.01-.4456.2056-1.3711.6328-1.592a.44.44,0,0,1,.4728.0408A2.4738,2.4738,0,0,0,5.91,9.2555c.6888-.6731,1.2342-1.31.9415-2.2866a3.37,3.37,0,0,1-.112-.5565,2.1555,2.1555,0,0,0-.1642-.6465,1.0815,1.0815,0,0,0-.8588-.7165,3.359,3.359,0,0,1-.36-.1213.5616.5616,0,0,1-.25-.3254.3166.3166,0,0,1-.0032-.2583A5.2852,5.2852,0,0,1,6.2931,2.9469a14.415,14.415,0,0,1,2.5837-.93,5.3239,5.3239,0,0,1,1.4111-.0679c.1924.0075.3859.0149.5742.0146.2229,0,.4551.005.6852.0115a10.9936,10.9936,0,0,0,1.317-.0146,4.3191,4.3191,0,0,1,2.546.5136c.2146.1169.4455.2168.6695.3138.2279.0986.4637.2.6882.3211a3.4572,3.4572,0,0,1,1.521,2.7783c.0121.0664.0367.1993.0491.2657A4.26,4.26,0,0,1,18.09,9.0475ZM14.018,7.09a3.4229,3.4229,0,0,0-.0062.7835c.0029.0437.0088.131.0115.1747a1.6427,1.6427,0,0,1-.7375,1.3452,3.8165,3.8165,0,0,1-.7971.4853c-.0776.0394-.1547.0786-.2322.1193a1.7763,1.7763,0,0,1-2.33-.682,2.3753,2.3753,0,0,1-.4529-1.7051c.0184-.1621.1252-.5105.2625-.5387l.0094.0053c.0255-.0035.0551-.0541.0733-.0722.0947-.0946.1862-.1914.2792-.2877.1979-.2048.4014-.4177.6172-.6035a3.1118,3.1118,0,0,1,2.68-.1873A1.0655,1.0655,0,0,1,14.018,7.09Z"/></svg>