<svg viewBox="0 0 20 20" xmlns="http://www.w3.org/2000/svg"><path d="m19.38 6.0672c-.4383-2.2371-1.5437-4.3117-3.83-5.06a12.5928 12.5928 0 0 0 -3.7159-.3566 9.1371 9.1371 0 0 0 -3.8447.2624 11.2508 11.2508 0 0 0 -3.1838 1.5442 16.1479 16.1479 0 0 0 -2.2591 3.02 8.1151 8.1151 0 0 0 -1.6182 2.9261 7.3678 7.3678 0 0 0 -.3837 3.0748 29.4045 29.4045 0 0 1 .2531 4.2974c-.0247 1.1453-.371 2.4334.91 2.9757a9.73 9.73 0 0 0 3.8286.5461c.9979-.005 2.11-.431 3.0792-.2419.4.0779.7588.3082 1.1692.3536a3.97 3.97 0 0 0 1.6553-.269c1.3441-.4584 1.7579-2.1786 1.8717-3.4591.0487-.5482-.1146-1.7262.338-2.1484.3821-.3565 1.244-.1662 1.74-.3691a15.7671 15.7671 0 0 0 1.5645-.93 4.3155 4.3155 0 0 0 2.24-2.826 7.0129 7.0129 0 0 0 .1858-3.3402zm-1.32 2.9611a3.18 3.18 0 0 1 -1.2345 1.7956 5.3439 5.3439 0 0 1 -2.3012 1.1611c-.5877.0333-1.3-.4122-1.8394.0311a2.0128 2.0128 0 0 0 -.4424 1.31 16.7916 16.7916 0 0 1 -.2425 3.1678c-.3679 1.2791-2.2649 2.3867-3.0652.7764-.3692-.7428-.0155-2.1754.0568-2.9648.0276-.3013.212-.8887.0771-1.1469-.3073-.5882-1.0647-.3388-1.2743.1652a6.3714 6.3714 0 0 0 -.1044 1.7913c-.0449.509-.1547 1.0111-.2 1.5191-.0595.673-.0009.9917-.7394 1.1723a1.1027 1.1027 0 0 1 -1.36-.6349 6.4553 6.4553 0 0 1 -.07-2.0355c-.0085-.5088.1286-1.59-.2394-1.986-.8221-.8849-.9811 1.444-.9747 1.9244.0086.6411.3786 2.4461-.4146 2.7417a1.661 1.661 0 0 1 -1.6-.4811c-.3782-.5382-.2181-1.5469-.2146-2.1718a22.765 22.765 0 0 0 -.1054-3.0139 5.3788 5.3788 0 0 1 -.1254-1.8579 1.8735 1.8735 0 0 1 .3528-.8745c.369-.3818.5452-.1769.9692.015a2.6554 2.6554 0 0 0 3.7777-1.3512 3.3352 3.3352 0 0 0 -.1215-2.0035 1.5119 1.5119 0 0 0 -.4926-.8516c-.2424-.1846-.61-.149-.8393-.328-.5911-.4616.0726-1.1139.4239-1.5107a4.5523 4.5523 0 0 1 2.0709-1.1059 8.2251 8.2251 0 0 1 3.0254-.3558 29.6892 29.6892 0 0 1 3.0106.0076 8.4364 8.4364 0 0 1 2.7393 1.0562 2.8311 2.8311 0 0 1 1.4571 1.792 6.7055 6.7055 0 0 1 .04 4.2472zm-4.0826-1.9626c-.1156.7036.1476 1.2781-.3271 1.8995a3.6172 3.6172 0 0 1 -1.6871 1.1239 2.1439 2.1439 0 0 1 -2.5507-2.3491 2.8683 2.8683 0 0 1 1.9732-1.9642c.9205-.2351 2.8204-.1029 2.5917 1.2899z"/></svg>