<svg viewBox="0 0 20 20" xmlns="http://www.w3.org/2000/svg"><path d="m1.67 16.4923c-.6241-.3556-1.5461-.74-1.0078-1.4962.5473-.7685 1.3323-1.3545 1.8694-2.1547 1.0163-1.514 1.9784-3.1775 2.8507-4.7779a14.8829 14.8829 0 0 0 1.1-2.6243 5.3547 5.3547 0 0 1 1.2298-2.3592 4.0829 4.0829 0 0 1 4.9173.0079 3.2812 3.2812 0 0 1 .5806 1.5521 5.7787 5.7787 0 0 0 .7876 1.9935c.4611.6423 1.05 1.1839 1.5193 1.8185.68.9183 1.23 1.9484 1.8233 2.9238.5468.8992 1.1176 1.7834 1.6646 2.6823.5419.8907.8811 1.5025-.3095 1.9031-.82.276-1.5831.64-2.3915.9391a14.3374 14.3374 0 0 1 -2.4831.5016 19.0368 19.0368 0 0 1 -6.3452.13c-1.9142-.2944-4.053-.0409-5.8055-1.0396zm10.6493-3.6323a3.4252 3.4252 0 0 1 .49 1.73c.0478.4384-.0522 1.67.4206 1.9077a2.8733 2.8733 0 0 0 1.8219-.3876c.2152-.3622-.6175-1.6859-.7731-2.034q-.4936-1.1049-.9857-2.21c-.1979-.4461-1.063-1.7161-.643-2.1693.5317-.5738 1.04.8791 1.2138 1.2179.4034.784.8321 1.5631 1.1895 2.3694.5273 1.19.885 2.81 2.5384 2.27 1.6991-.5551-.5227-2.81-1.0341-3.6056-.4177-.65-.783-1.324-1.2072-1.9713-.4876-.7441-1.08-1.3469-1.624-2.0411a20.0393 20.0393 0 0 1 -1.26-1.9333c-.5826-.9521-.5343-.4077-1.39-.17a5.6046 5.6046 0 0 1 -1.9739.0963 2.8887 2.8887 0 0 1 -.8992-.2753c-.1756-.0961-.4553-.5109-.55-.5334-.5041-.12-.604.975-.6641 1.3085a7.6071 7.6071 0 0 1 -.88 2.2159c-.8064 1.5052-1.6868 3.0117-2.5792 4.4682-.4042.66-1.1129 1.2056-1.4745 1.8523-.3351.5992.3186.7086.8975.9054.4239.1441 1.4732.5478 1.871.2543.4556-.3361.6545-1.9516.8146-2.494.1031-.35.4743-1.259.9374-.611.31.4343-.2385 1.5987-.3527 2.03-.1811.6845-.4149.9857.266 1.2836.5325.233 1.1666.51 1.668.0261.4253-.41.3685-1.0794.39-1.6a14.5175 14.5175 0 0 1 .184-2.3262c.1805-.93.188-1.8835.3359-2.8175.0443-.28.06-.7678.4616-.6465.4279.1293.268.8431.2453 1.13-.151 1.9127-.3412 3.8259-.485 5.7354-.0742.9856.06 1.0241 1.0647 1.165.7115.1 1.8071-.0721 1.7732-.7174a6.417 6.417 0 0 0 -.25-1.8455 6.8978 6.8978 0 0 1 -.3024-1.2014c-.0109-.1618.5026-.7698.7447-.3756z"/></svg>