<svg xmlns="http://www.w3.org/2000/svg" viewBox="0 0 20 20"><title>exisim-icons</title><path d="M1.82,16.4124A11.0539,11.0539,0,0,1,.8725,15.79c-.3048-.2213-.4107-.4993-.1128-.7993a16.0472,16.0472,0,0,0,1.7065-1.8967C3.11,12.2012,3.562,11.2212,3.86,10.745A24.3185,24.3185,0,0,0,6.37,6.158c.1335-.379.2224-.7471.3518-1.1175A3.6854,3.6854,0,0,1,8.4943,2.6589a3.7371,3.7371,0,0,1,2.7289-.1581,4.967,4.967,0,0,1,1.1582.4623c.3429.1991.4013.128.583.64a24.4655,24.4655,0,0,0,.7863,2.5863,5.6151,5.6151,0,0,0,.67.9279c.453.5745.9517,1.0331,1.3168,1.6029.7755,1.21,1.4713,2.4019,2.2144,3.6016.5457.8807,1.0442,1.63,1.5676,2.5581.2125.3767-.1484.8112-.5091.91s-.5558.1924-.8533.262a14.2694,14.2694,0,0,0-1.8325.7652,8.6867,8.6867,0,0,1-1.8341.3848c-.7833.1347-1.8045.3482-2.7371.4213a18.0685,18.0685,0,0,1-2.9391-.0005c-.4509-.0371-1.7978-.2889-2.207-.3092a11.2776,11.2776,0,0,1-3.9467-.5922A5.9611,5.9611,0,0,1,1.82,16.4124Zm10.3329-3.8352c.9015.9475.6108,2.3292.8955,3.5016.0905.3728.3077.4244.6444.3231s.7015-.1167,1.0415-.2154.5161-.1028.297-.5712-.5222-1.1753-.7794-1.7445c-.4977-1.1019-1.04-2.3459-1.54-3.4486-.1517-.3342-.2135-.6173.0658-.832s.4906.0636.6115.2954c.462.8853,1.0428,2.0235,1.4618,2.8471s.5594,1.4241.9823,2.1524c.1858.32.3182.6559.7865.6706s1.3128.0484,1.61-.5271-.33-1.082-.636-1.5528c-.4777-.7356-.954-1.4593-1.4178-2.1949-.089-.1412-.1435-.3224-.2328-.4569-.3579-.539-.769-1.2122-1.1262-1.6971S14.1,8.3727,13.7693,7.9321a25.1468,25.1468,0,0,1-1.4276-2.2128c-.2-.3306-.3442-.5593-.73-.0873a1.1227,1.1227,0,0,1-.7879.2507c-.335.0286-.8268.0429-1.2477.0864a3.2378,3.2378,0,0,1-1.56-.455c-.2235-.1857-.269-.4608-.3266-.429-.67.37-.49,1.301-.7217,1.9274a23.3769,23.3769,0,0,1-2.0137,3.7768,16.9176,16.9176,0,0,1-2.6695,4.0275c-.3966.3759-.4085.4371.1615.7221A6.8239,6.8239,0,0,0,4.78,16.14a.2782.2782,0,0,0,.2127-.1406c.29-.8446.5843-1.7355.8041-2.5828.0938-.3615.1848-.6728.5817-.6313s.3885.42.332.73c-.1188.6525-.3579,1.3106-.4982,1.9514-.0634.2894-.2886.6369.2061.7369s1.3892.76,1.961.1764.1443-1.8872.1941-2.7323c.0276-.47.2317-1.0634.3022-1.5724.1272-.9183.2012-1.9082.32-2.826.0181-.14.1863-.3749.3346-.34a.5836.5836,0,0,1,.3633.4359c-.0195.8771-.1472,1.6458-.2311,2.5321s-.169,1.8648-.2735,2.7742a9.6386,9.6386,0,0,1-.0811,1.5659c-.0479.1625-.0029.4866.1165.5067.805.135,2.0744.5549,2.5954-.18.7306-1.03-.4681-2.3294-.3811-3.36C11.6708,12.7936,11.9,12.3113,12.1527,12.5772Z"/></svg>