<svg viewBox="0 0 20 20" xmlns="http://www.w3.org/2000/svg"><path d="m.8935 18.35c1.3588 1.2448 2.8227-1.7926 3.5675-2.5274.7017-.6923 1.013.1408 1.5889.6332a1.54 1.54 0 0 0 2.2109-.1441 1.4349 1.4349 0 0 0 .2236-1.7859c-.404-.8378-.69-.8341-.09-1.6442.1868-.2526.3594-.7039.622-.8833.3-.205.2872-.1128.614.0914.542.3387 1.3133.6808.9106 1.3425-.3178.5222-1.0225.9227-1.1768 1.5648-.166.6908.7706 1.4808 1.327 1.866.73.5056 1.3215.1381 1.88-.4132.3682-.3632.8342-1.2987 1.36-1.28.647.0228 1.2.9761 1.64 1.3657a11.1138 11.1138 0 0 0 2.0388 1.6686 1.3416 1.3416 0 0 0 1.8488-.6774c.2279-.76-.4408-1.7051-.8767-2.2646-.5543-.7115-1.217-1.3472-1.8192-2.0185-.1458-.1625-.7541-.6766-.7445-.9091s.8858-.9716 1.0669-1.1693c.5232-.5711 1.0287-1.1088.6445-1.9159a2.8941 2.8941 0 0 0 -1.2381-1.28c-1.2717-.4649-1.6895 1.88-2.832.8191-.8321-.7725-.62-1.0861.0626-1.8912a16.9247 16.9247 0 0 0 1.8877-2.4285c.5021-.877 1.0277-2.5192-.2645-3.0016-1.44-.5375-3.21.98-4.3094 1.6884-.6155.3965-1.3456 1.2377-2.04.7258a15.6343 15.6343 0 0 0 -2.3119-1.7235c-1.1393-.5593-2.9481-.34-2.7473 1.3057a7.7728 7.7728 0 0 0 1.15 2.73c.2873.4921.6117.9543.9307 1.4253.3483.5144.3482.551-.1265.9826-.2532.23-.733.8332-1.0564.9314-.394.12-.5215-.1735-.8451-.4a1.7542 1.7542 0 0 0 -2.2454.1146 1.69 1.69 0 0 0 -.2342 2.2761c.3766.5772 1.4362 1.4223 1.23 2.1422-.2525.8788-1.39 1.4074-1.8294 2.17-.4006.6932-.6799 1.9069-.0171 2.5143zm11.5065-11.3822c-.4213.4339-1.9465-1.4473-1.94-1.81.02-1.04 2.5358-2.1469 3.3652-2.4345.6438-.2231 1.3386-.3913 1.1751.5087-.2615 1.4423-1.6303 2.7372-2.6003 3.7358zm-2.008 8.079c.1285-.6167.82-.9126 1.2579-1.2715a7.39 7.39 0 0 0 1.072-1.1961c.5659-.7217 1.2113-1.3693 1.8281-2.0478.3665-.4031 1.15-1.7913 1.8147-1.5775 1.64.5272-1.703 3.6075-2.1248 4.1191-.6978.8464-1.3636 1.7492-2.1377 2.5278-.2633.2648-.5022.5833-.9065.5059-.3663-.0702-.8844-.671-.8034-1.0599zm-1.8811-5.7044a27.7621 27.7621 0 0 1 -2.5156-3.464c-.3645-.6275-1.5237-2.0857-.91-2.8627.6494-.8219 2.5489.6352 3.04 1.1407.6361.6536 1.1865 1.3836 1.8362 2.0336.6988.6992 1.3807 1.41 2.0859 2.1068.7282.72 1.9227 1.4185 1.0122 2.4054-.4043.4383-1.11 1.6163-1.7556 1.43-.4159-.12-1.0463-.8464-1.349-1.1469a20.5563 20.5563 0 0 1 -1.4441-1.6429zm-.2794 2.1676c-.3342.6485-1.0944 1.61-1.8262 1.0541-.6866-.5213-1.3654-1.6728-.7145-2.4042a3.7614 3.7614 0 0 1 1.0463-.8747c.4-.1733.4851-.0934.8141.2065.6672.6083 1.1078 1.1883.6803 2.0183zm-5.4561.1864c-.3026-.38-.8846-.8542-.678-1.376a.9741.9741 0 0 1 1.4893-.3125 3.6223 3.6223 0 0 1 1.2017 1.6591 5.58 5.58 0 0 0 1.6836 2.1651c.4927.378 1.6057.9491 1.2307 1.7213-.3919.8071-1.1631.125-1.5735-.2567-.644-.5989-1.3587-1.15-1.9582-1.7919-.5227-.5594-.9205-1.2116-1.3956-1.8085z"/></svg>