<svg xmlns="http://www.w3.org/2000/svg" viewBox="0 0 20 20"><title>exisim-icons</title><path d="M.8993,18.3387a1.1057,1.1057,0,0,0,1.6728-.198,6.3988,6.3988,0,0,1,.4773-.6431c.4673-.5663.9347-1.1331,1.4174-1.6863.4018-.46.5115-.4559.9336-.0359a9.6853,9.6853,0,0,0,.8912.8694,1.1929,1.1929,0,0,0,.7182.2418,2.4284,2.4284,0,0,0,1.4707-.7731c.3447-.31.2613-1.292-.1185-1.8141-.5423-.7456-.5356-.74.0378-1.429.1883-.2264.3232-.4965.5008-.7328.0995-.1324.289-.3571.3468-.3319a1.114,1.114,0,0,1,.2716.1778,7.5137,7.5137,0,0,0,.6983.5167,2.5455,2.5455,0,0,1,.3531.2249c.4866.5455-.1876.7012-.5278,1.2309a3.88,3.88,0,0,0-.7583,1.2969.5166.5166,0,0,0,.1721.3775c.36.3589.8574.8869,1.24,1.2213a1.1222,1.1222,0,0,0,1.4215.0122,14.7616,14.7616,0,0,0,1.11-1.108c.1746-.1787.2321-.6479.5846-.6216.7.0523,1.0784.7523,1.5076,1.1591.4169.3952.889.7315,1.3311,1.1007.2874.24.55.5124.85.7352a1.3642,1.3642,0,0,0,1.5462-.0559,1.0626,1.0626,0,0,0,.3665-1.3311,5.5033,5.5033,0,0,0-1.34-2.0846c-.6966-.7417-1.23-1.3382-1.9068-2.0987-.2377-.2673-.2217-.2018.0587-.4752.4324-.4218.8137-.8953,1.236-1.3281a1.2571,1.2571,0,0,0,.3631-1.3179c-.1254-.4508-1.1425-1.5773-1.5939-1.5555a1.454,1.454,0,0,0-.5737.1954,3.8266,3.8266,0,0,0-.4867.3557c-.7958.7958-.9606.8959-1.358.4862a5.9932,5.9932,0,0,1-.7247-.7628c-.2-.2759.0169-.52.1967-.7406.6544-.8023,1.3671-1.56,1.97-2.4013,2.0494-2.86.3978-4.6737-2.3706-3.016-1.0329.6184-2.05,1.2686-3.05,1.9416-.344.2316-.4945.2453-.8322-.07A9.2017,9.2017,0,0,0,6.3922,2.0088c-1.2985-.5579-2.861.1608-2.3865,1.708a10.1,10.1,0,0,0,.6052,1.5779,16.5874,16.5874,0,0,0,1.6122,2.58c.1626.212.1161.3444-.0768.5052-.418.3483-.8244.7114-1.2221,1.0828-.1805.1685-.3074.1938-.51.0148a2.9262,2.9262,0,0,0-.8805-.62,1.8039,1.8039,0,0,0-2.3775,1.6373,2.3024,2.3024,0,0,0,.6881,1.4578c.3162.4323.6521.8518.9372,1.3036a.532.532,0,0,1-.0728.4737,8.9726,8.9726,0,0,1-1.2776,1.4919,2.2211,2.2211,0,0,0-.78,1.3155C.5131,17.1592.3041,17.7935.8993,18.3387ZM12.4061,6.9567c-.2072.2134-.4122.1125-.5865-.0431-.0508-.0454-.6354-.8083-.81-1.0081-.131-.15-.2682-.2954-.4046-.4448-.1517-.1661-.2587-.4114.1244-.7807a5.382,5.382,0,0,1,.6786-.6108,11.1048,11.1048,0,0,1,1.9986-1.1934c1.5829-.64,2.1968-.62,1.095,1.5487a7.4958,7.4958,0,0,1-.9952,1.2985C13.1557,6.1478,12.79,6.5617,12.4061,6.9567Zm-2.008,8.079c.1311-.6292,1.2322-1.2272,1.3916-1.3668a14.1486,14.1486,0,0,0,1.0808-1.293,4.1171,4.1171,0,0,1,.3874-.4572c.5172-.5612,1.0439-1.1138,1.5549-1.6807.3305-.3668.614-.7793.9654-1.1234.4215-.4127.8145-.1743,1.033.3869a.8355.8355,0,0,1-.077.6983c-.4038.5129-.8955.9553-1.3175,1.4552-.9446,1.1188-1.8637,2.2591-2.802,3.3833-.2395.287-.5057.5527-.771.8168-.3178.3164-.5407.3689-.875.0958C10.6267,15.6714,10.317,15.4252,10.3981,15.0357ZM8.5167,9.3314C7.9839,8.6733,7.46,8.0071,6.9542,7.3281a21.9263,21.9263,0,0,1-1.9353-3.31c-.1691-.3347-.0627-1.2866.4655-1.2389A4.592,4.592,0,0,1,7.9107,3.9363a4.877,4.877,0,0,1,.78.9076c.16.2216,1.378,1.44,1.6886,1.7436.1034.101.1675.2423.2706.3438.378.3722.766.7343,1.1479,1.1025.4021.3879,1.1028,1.1155,1.5064,1.5018a.7054.7054,0,0,1-.1162,1.04,8.3076,8.3076,0,0,0-.6747.6743c-.077.0952-.4317.5393-.5142.6456-.358.4613-.6236.3832-1.2117-.1874a11.15,11.15,0,0,1-1.1634-1.0977C9.2713,10.1709,8.8714,9.7694,8.5167,9.3314Zm-.2794,2.1674a3.3064,3.3064,0,0,1-1.2155,1.2557c-.2906.1161-.3968-.038-.7125-.2838a3.812,3.812,0,0,1-.7712-1.1333.8507.8507,0,0,1,.0158-1.0384A7.9318,7.9318,0,0,1,6.9626,9.127c.0708-.0448.178-.0042.3681.1456a4.67,4.67,0,0,1,1.11,1.3891,1.28,1.28,0,0,1,.0323.2114c.001.0043.0066.0094.0072.0136C8.5125,11.1165,8.3332,11.3127,8.2373,11.4988Zm-5.4561.1865a4.9723,4.9723,0,0,1-.7379-1.0375c-.1285-.35.5276-.94,1.02-.9037a2.8015,2.8015,0,0,1,1.47,1.3125,6.2566,6.2566,0,0,0,1.5594,2.4582c.4132.3572.8839.6477,1.2986,1.0033.4272.3662.5113.8225.2625,1.1227-.3234.39-.6218.4107-1.1459-.0211-.5145-.4239-.95-.947-1.4786-1.35A11.6753,11.6753,0,0,1,2.7812,11.6853Z"/></svg>